<svg width="274" height="51" viewBox="0 0 274 51" fill="none" xmlns="http://www.w3.org/2000/svg">
<rect y="3.05176e-05" width="274" height="51" rx="25.5" fill="url(#paint0_linear)"/>
<path d="M73.4924 22.726V25.708H78.2244V27.248H73.4924V31H71.6724V21.2H78.8264V22.726H73.4924ZM86.5187 28.732H81.6187L80.6527 31H78.7767L83.1867 21.2H84.9787L89.4027 31H87.4987L86.5187 28.732ZM85.9167 27.304L84.0687 23.02L82.2347 27.304H85.9167ZM95.0483 31.14C94.059 31.14 93.163 30.9254 92.3603 30.496C91.567 30.0574 90.9416 29.4554 90.4843 28.69C90.0363 27.9247 89.8123 27.0614 89.8123 26.1C89.8123 25.1387 90.041 24.2754 90.4983 23.51C90.9556 22.7447 91.581 22.1474 92.3743 21.718C93.177 21.2794 94.073 21.06 95.0623 21.06C95.865 21.06 96.5976 21.2 97.2603 21.48C97.923 21.76 98.483 22.166 98.9403 22.698L97.7643 23.804C97.055 23.0387 96.1823 22.656 95.1463 22.656C94.4743 22.656 93.8723 22.8054 93.3403 23.104C92.8083 23.3934 92.393 23.7994 92.0943 24.322C91.7956 24.8447 91.6463 25.4374 91.6463 26.1C91.6463 26.7627 91.7956 27.3554 92.0943 27.878C92.393 28.4007 92.8083 28.8114 93.3403 29.11C93.8723 29.3994 94.4743 29.544 95.1463 29.544C96.1823 29.544 97.055 29.1567 97.7643 28.382L98.9403 29.502C98.483 30.034 97.9183 30.44 97.2463 30.72C96.5836 31 95.851 31.14 95.0483 31.14ZM108.034 29.474V31H100.684V21.2H107.838V22.726H102.504V25.274H107.236V26.772H102.504V29.474H108.034ZM117.007 25.904C117.548 26.0814 117.978 26.38 118.295 26.8C118.612 27.2107 118.771 27.724 118.771 28.34C118.771 29.1894 118.444 29.8474 117.791 30.314C117.138 30.7714 116.186 31 114.935 31H110.063V21.2H114.655C115.812 21.2 116.704 21.4287 117.329 21.886C117.954 22.334 118.267 22.9547 118.267 23.748C118.267 24.2334 118.155 24.6627 117.931 25.036C117.707 25.4094 117.399 25.6987 117.007 25.904ZM111.883 22.628V25.33H114.459C115.094 25.33 115.579 25.218 115.915 24.994C116.26 24.7607 116.433 24.4247 116.433 23.986C116.433 23.538 116.26 23.202 115.915 22.978C115.579 22.7447 115.094 22.628 114.459 22.628H111.883ZM114.823 29.572C116.232 29.572 116.937 29.1007 116.937 28.158C116.937 27.2154 116.232 26.744 114.823 26.744H111.883V29.572H114.823ZM125.291 31.14C124.293 31.14 123.392 30.9254 122.589 30.496C121.787 30.0574 121.157 29.4554 120.699 28.69C120.242 27.9154 120.013 27.052 120.013 26.1C120.013 25.148 120.242 24.2894 120.699 23.524C121.157 22.7494 121.787 22.1474 122.589 21.718C123.392 21.2794 124.293 21.06 125.291 21.06C126.29 21.06 127.191 21.2794 127.993 21.718C128.796 22.1474 129.426 22.7447 129.883 23.51C130.341 24.2754 130.569 25.1387 130.569 26.1C130.569 27.0614 130.341 27.9247 129.883 28.69C129.426 29.4554 128.796 30.0574 127.993 30.496C127.191 30.9254 126.29 31.14 125.291 31.14ZM125.291 29.544C125.945 29.544 126.533 29.3994 127.055 29.11C127.578 28.8114 127.989 28.4007 128.287 27.878C128.586 27.346 128.735 26.7534 128.735 26.1C128.735 25.4467 128.586 24.8587 128.287 24.336C127.989 23.804 127.578 23.3934 127.055 23.104C126.533 22.8054 125.945 22.656 125.291 22.656C124.638 22.656 124.05 22.8054 123.527 23.104C123.005 23.3934 122.594 23.804 122.295 24.336C121.997 24.8587 121.847 25.4467 121.847 26.1C121.847 26.7534 121.997 27.346 122.295 27.878C122.594 28.4007 123.005 28.8114 123.527 29.11C124.05 29.3994 124.638 29.544 125.291 29.544ZM137.077 31.14C136.078 31.14 135.177 30.9254 134.375 30.496C133.572 30.0574 132.942 29.4554 132.485 28.69C132.027 27.9154 131.799 27.052 131.799 26.1C131.799 25.148 132.027 24.2894 132.485 23.524C132.942 22.7494 133.572 22.1474 134.375 21.718C135.177 21.2794 136.078 21.06 137.077 21.06C138.075 21.06 138.976 21.2794 139.779 21.718C140.581 22.1474 141.211 22.7447 141.669 23.51C142.126 24.2754 142.355 25.1387 142.355 26.1C142.355 27.0614 142.126 27.9247 141.669 28.69C141.211 29.4554 140.581 30.0574 139.779 30.496C138.976 30.9254 138.075 31.14 137.077 31.14ZM137.077 29.544C137.73 29.544 138.318 29.3994 138.841 29.11C139.363 28.8114 139.774 28.4007 140.073 27.878C140.371 27.346 140.521 26.7534 140.521 26.1C140.521 25.4467 140.371 24.8587 140.073 24.336C139.774 23.804 139.363 23.3934 138.841 23.104C138.318 22.8054 137.73 22.656 137.077 22.656C136.423 22.656 135.835 22.8054 135.313 23.104C134.79 23.3934 134.379 23.804 134.081 24.336C133.782 24.8587 133.633 25.4467 133.633 26.1C133.633 26.7534 133.782 27.346 134.081 27.878C134.379 28.4007 134.79 28.8114 135.313 29.11C135.835 29.3994 136.423 29.544 137.077 29.544ZM147.658 26.898L146.104 28.494V31H144.284V21.2H146.104V26.226L150.948 21.2H152.992L148.876 25.582L153.244 31H151.116L147.658 26.898ZM158.352 21.2H160.172V29.46H165.296V31H158.352V21.2ZM171.133 31.14C170.135 31.14 169.234 30.9254 168.431 30.496C167.629 30.0574 166.999 29.4554 166.541 28.69C166.084 27.9154 165.855 27.052 165.855 26.1C165.855 25.148 166.084 24.2894 166.541 23.524C166.999 22.7494 167.629 22.1474 168.431 21.718C169.234 21.2794 170.135 21.06 171.133 21.06C172.132 21.06 173.033 21.2794 173.835 21.718C174.638 22.1474 175.268 22.7447 175.725 23.51C176.183 24.2754 176.411 25.1387 176.411 26.1C176.411 27.0614 176.183 27.9247 175.725 28.69C175.268 29.4554 174.638 30.0574 173.835 30.496C173.033 30.9254 172.132 31.14 171.133 31.14ZM171.133 29.544C171.787 29.544 172.375 29.3994 172.897 29.11C173.42 28.8114 173.831 28.4007 174.129 27.878C174.428 27.346 174.577 26.7534 174.577 26.1C174.577 25.4467 174.428 24.8587 174.129 24.336C173.831 23.804 173.42 23.3934 172.897 23.104C172.375 22.8054 171.787 22.656 171.133 22.656C170.48 22.656 169.892 22.8054 169.369 23.104C168.847 23.3934 168.436 23.804 168.137 24.336C167.839 24.8587 167.689 25.4467 167.689 26.1C167.689 26.7534 167.839 27.346 168.137 27.878C168.436 28.4007 168.847 28.8114 169.369 29.11C169.892 29.3994 170.48 29.544 171.133 29.544ZM185.032 25.988H186.754V29.894C186.25 30.2954 185.662 30.6034 184.99 30.818C184.318 31.0327 183.628 31.14 182.918 31.14C181.92 31.14 181.019 30.9254 180.216 30.496C179.414 30.0574 178.784 29.4554 178.326 28.69C177.869 27.9247 177.64 27.0614 177.64 26.1C177.64 25.1387 177.869 24.2754 178.326 23.51C178.784 22.7447 179.414 22.1474 180.216 21.718C181.028 21.2794 181.938 21.06 182.946 21.06C183.768 21.06 184.514 21.1954 185.186 21.466C185.858 21.7367 186.423 22.1334 186.88 22.656L185.732 23.776C184.986 23.0294 184.085 22.656 183.03 22.656C182.34 22.656 181.724 22.8007 181.182 23.09C180.65 23.3794 180.23 23.7854 179.922 24.308C179.624 24.8307 179.474 25.428 179.474 26.1C179.474 26.7534 179.624 27.3414 179.922 27.864C180.23 28.3867 180.65 28.7974 181.182 29.096C181.724 29.3947 182.335 29.544 183.016 29.544C183.782 29.544 184.454 29.376 185.032 29.04V25.988ZM189.155 21.2H190.975V31H189.155V21.2ZM202.334 21.2V31H200.836L195.432 24.364V31H193.626V21.2H195.124L200.528 27.836V21.2H202.334Z" fill="white"/>
<defs>
<linearGradient id="paint0_linear" x1="9.58922e-07" y1="33" x2="274" y2="33" gradientUnits="userSpaceOnUse">
<stop stop-color="#464692"/>
<stop offset="1" stop-color="#7272EA"/>
</linearGradient>
</defs>
</svg>
