<svg width="288" height="207" viewBox="0 0 288 207" fill="none" xmlns="http://www.w3.org/2000/svg">
<path opacity="0.1" d="M18.1395 120.581C28.029 130.003 30.5498 145.622 30.5498 158.465C30.5498 162.789 30.4205 167.371 32.4889 171.631C34.9451 176.859 39.9868 180.215 44.6407 181.634C53.0436 184.281 61.3171 182.022 66.1003 175.697C70.3017 170.276 71.9177 162.273 76.2484 156.981C83.4877 148.203 96.6737 148.978 108.826 152.269C117.422 154.593 127.053 157.884 133.194 153.044C137.524 149.623 139.011 142.718 138.753 135.747C138.623 132.391 138.171 128.777 139.076 125.937C139.658 124.259 140.692 122.969 141.791 121.807C152.132 111.416 170.102 113.223 179.733 101.929C186.261 94.3135 187.812 81.7284 186.196 69.0789C184.58 56.4293 180.056 43.6506 175.208 31.1301C171.782 22.2237 167.839 12.8011 161.052 6.60534C153.878 0.0223903 144.893 -1.33292 138.042 1.18409C131.19 3.76564 126.148 9.76774 122.27 16.5443C117.422 24.9989 113.609 35.196 105.658 39.5846C100.229 42.5534 93.4419 42.4889 86.9781 43.1343C76.2484 44.1669 66.1649 47.2648 56.2108 50.5562C46.7738 53.7186 37.2074 56.9456 29.0631 62.6895C23.3104 66.7555 19.6261 72.9512 14.5198 77.7271C11.1586 80.8249 6.89257 82.2448 3.98389 85.988C0.428842 90.5703 -1.83346 97.9922 1.98014 105.608C5.59982 112.836 12.9038 115.547 18.1395 120.581Z" fill="#F9C93A"/>
<g opacity="0.5">
<path opacity="0.5" d="M112.445 23.9666C111.54 24.6765 110.571 25.9673 110.829 28.2907C111.282 32.873 115.289 34.551 116.065 39.1332C116.259 40.3595 116.194 41.6502 115.936 42.8765C115.418 44.8772 114.514 46.1034 113.738 47.7169C112.768 49.7176 112.445 51.9764 112.704 54.1708C113.027 56.6232 113.932 58.9466 115.354 60.9473C116.517 62.6253 117.81 63.6579 119.103 64.9487C120.654 66.5622 122.141 68.2402 123.369 70.1118C124.015 71.0154 124.532 71.9834 124.985 72.9515C125.502 74.2423 125.89 75.6622 126.278 77.1465L129.509 89.9898C129.962 91.6678 130.35 93.4103 130.996 94.9592C131.707 96.7018 132.612 98.1216 133.517 99.477C135.456 102.446 137.46 105.479 139.528 106.576C141.597 107.673 143.73 106.124 143.794 102.058C143.859 98.1862 142.049 93.7975 141.855 89.7961C141.532 83.4713 145.022 81.1479 145.022 75.0168C144.958 69.1437 141.79 63.2062 140.498 57.0105C139.528 52.5573 139.593 48.1686 138.817 43.7155C137.718 37.2616 135.133 31.2595 132.16 27.129C129.251 23.0631 126.019 20.7397 122.916 19.2553C121.624 18.6099 120.266 18.1581 119.103 18.5454C117.875 18.9326 117.422 20.8688 116.453 21.8368C115.289 22.934 113.673 22.9985 112.445 23.9666Z" fill="#F9C93A"/>
<path opacity="0.5" d="M118.198 19.3198C118.198 19.3198 137.654 72.4352 141.726 106.77" stroke="#535461" stroke-width="2" stroke-miterlimit="10"/>
<path opacity="0.5" d="M110.894 28.5489C110.894 28.5489 123.498 33.1311 128.346 49.7821" stroke="#535461" stroke-width="2" stroke-miterlimit="10"/>
<path opacity="0.5" d="M112.962 55.5261C112.962 55.5261 129.315 52.3637 131.901 61.8509" stroke="#535461" stroke-width="2" stroke-miterlimit="10"/>
<path opacity="0.5" d="M132.224 27.0645C132.224 27.0645 128.281 34.9382 129.057 52.2346" stroke="#535461" stroke-width="2" stroke-miterlimit="10"/>
<path opacity="0.5" d="M145.022 75.2104C145.022 75.2104 142.178 80.1799 134.163 70.1118" stroke="#535461" stroke-width="2" stroke-miterlimit="10"/>
<path opacity="0.5" d="M129.768 89.2153C129.768 89.2153 137.783 84.633 136.426 79.0182" stroke="#535461" stroke-width="2" stroke-miterlimit="10"/>
</g>
<path d="M151.421 4.28232C149.159 4.60501 146.38 5.70217 145.281 8.92911C143.083 15.3184 149.805 20.0943 148.254 26.7418C147.802 28.7425 146.638 30.356 145.475 31.5177C143.148 33.8411 140.433 34.8091 137.912 36.4226C135.391 38.0361 132.741 40.4886 131.513 44.2318C130.35 47.846 130.867 51.9119 132.03 54.8807C133.194 57.914 135.004 60.1083 136.619 62.6253C138.559 65.6587 140.239 68.8856 141.532 72.3062C142.114 73.7906 142.631 75.3395 142.825 77.1466C143.019 79.2118 142.76 81.3416 142.501 83.5359L140.175 102.575C139.851 105.092 139.528 107.673 139.722 110.126C139.916 112.966 140.756 115.418 141.597 117.806C143.342 122.969 145.281 128.326 148.577 131.23C151.939 134.07 157.174 133.489 160.018 128.197C162.733 123.163 162.216 116.193 164.478 110.771C168.098 102.252 176.565 101.542 180.702 93.4103C184.645 85.6011 182.447 75.6622 183.999 66.6267C185.097 60.1729 188.2 54.3644 189.751 47.975C192.014 38.8105 190.915 29.0652 187.941 21.7078C184.968 14.3504 180.25 9.18726 175.143 5.18586C173.01 3.50785 170.683 1.95892 168.162 1.63623C165.448 1.31354 163.315 3.63693 160.665 4.21778C157.691 4.86317 154.524 3.83055 151.421 4.28232Z" fill="#F9C93A"/>
<path d="M165.771 2.02345C165.771 2.02345 167.904 84.9557 152.585 132.973" stroke="#535461" stroke-width="2" stroke-miterlimit="10"/>
<path d="M145.216 9.31633C145.216 9.31633 166.87 23.8375 164.995 48.9431" stroke="#535461" stroke-width="2" stroke-miterlimit="10"/>
<path d="M130.996 46.168C130.996 46.168 165.125 52.9445 163.832 67.1431" stroke="#535461" stroke-width="2" stroke-miterlimit="10"/>
<path d="M188.006 21.5142C188.006 21.5142 175.014 29.2588 164.801 52.6218" stroke="#535461" stroke-width="2" stroke-miterlimit="10"/>
<path d="M180.508 93.5394C180.508 93.5394 171.588 98.2507 162.668 79.599" stroke="#535461" stroke-width="2" stroke-miterlimit="10"/>
<path d="M141.144 101.8C141.144 101.8 160.018 101.155 161.117 92.765" stroke="#535461" stroke-width="2" stroke-miterlimit="10"/>
<path opacity="0.1" d="M117.551 135.296C169.921 135.296 212.374 131.222 212.374 126.196C212.374 121.17 169.921 117.096 117.551 117.096C65.1823 117.096 22.7286 121.17 22.7286 126.196C22.7286 131.222 65.1823 135.296 117.551 135.296Z" fill="#F9C93A"/>
<path opacity="0.1" d="M56.1461 173.116C84.419 173.116 107.339 167.655 107.339 160.918C107.339 154.181 84.419 148.72 56.1461 148.72C27.8731 148.72 4.95337 154.181 4.95337 160.918C4.95337 167.655 27.8731 173.116 56.1461 173.116Z" fill="#F9C93A"/>
<path d="M100.035 116.709C100.552 116.257 101.069 115.676 101.198 114.966C101.328 114.256 101.069 113.482 100.423 113.224C99.7116 112.966 98.8713 113.417 98.2896 113.998C97.7079 114.514 96.9968 115.095 96.2212 114.966C97.0615 114.192 97.3847 113.095 97.1908 111.997C97.1261 111.804 97.0615 111.546 96.9322 111.417C96.5444 110.965 95.7687 111.158 95.3163 111.481C93.765 112.578 93.3125 114.708 93.3125 116.58C93.1832 115.87 93.3125 115.16 93.3125 114.45C93.3125 113.74 93.1186 112.966 92.5369 112.578C92.1491 112.385 91.7612 112.256 91.3088 112.32C90.5978 112.32 89.8221 112.385 89.3697 112.901C88.7879 113.546 88.9172 114.579 89.4343 115.289C89.9514 115.999 90.727 116.451 91.438 116.902C92.0198 117.225 92.5369 117.741 92.8601 118.258C92.9247 118.322 92.9247 118.451 92.9893 118.516H97.3847C98.2896 118.129 99.1945 117.483 100.035 116.709Z" fill="#F9C93A"/>
<path d="M26.4776 142.718C26.8654 142.395 27.1886 141.943 27.3179 141.427C27.4471 140.911 27.1886 140.33 26.7361 140.136C26.219 139.943 25.6373 140.33 25.1848 140.717C24.7324 141.104 24.2153 141.556 23.6335 141.427C24.2153 140.911 24.5385 140.072 24.3446 139.233C24.3446 139.039 24.2799 138.91 24.1506 138.781C23.8275 138.458 23.3104 138.587 22.9225 138.846C21.7591 139.685 21.4359 141.234 21.4359 142.653C21.3066 142.137 21.4359 141.621 21.4359 141.104C21.4359 140.588 21.3066 140.007 20.8541 139.749C20.5956 139.62 20.2724 139.556 19.9492 139.556C19.4321 139.556 18.8504 139.62 18.5272 139.943C18.0747 140.395 18.204 141.234 18.5918 141.685C18.9797 142.137 19.5614 142.524 20.0785 142.912C20.531 143.17 20.8541 143.492 21.1773 143.944C21.242 144.009 21.242 144.073 21.242 144.138H24.4738C25.1848 143.686 25.8312 143.234 26.4776 142.718Z" fill="#F9C93A"/>
<path d="M116.711 171.438C117.099 171.115 117.422 170.663 117.551 170.147C117.681 169.631 117.422 169.05 116.97 168.856C116.453 168.662 115.871 169.05 115.418 169.437C114.966 169.824 114.449 170.276 113.867 170.147C114.449 169.631 114.772 168.792 114.578 167.953C114.578 167.759 114.514 167.63 114.384 167.501C114.061 167.178 113.544 167.307 113.156 167.565C111.993 168.404 111.669 169.953 111.669 171.373C111.54 170.857 111.669 170.341 111.669 169.824C111.669 169.308 111.54 168.727 111.088 168.469C110.829 168.34 110.506 168.275 110.183 168.275C109.666 168.275 109.084 168.34 108.761 168.663C108.308 169.114 108.438 169.953 108.825 170.405C109.213 170.921 109.795 171.244 110.312 171.631C110.765 171.889 111.088 172.212 111.411 172.664C111.476 172.728 111.476 172.793 111.476 172.858H114.707C115.418 172.47 116.065 172.019 116.711 171.438Z" fill="#F9C93A"/>
<path d="M173.14 124.712C173.14 124.712 172.17 125.228 171.718 122.259C171.459 120.388 170.619 116.386 170.102 113.869L170.037 113.546C170.166 113.482 170.36 113.417 170.489 113.353C170.489 113.353 167.451 101.607 168.162 98.9606C168.874 96.3791 168.162 91.6678 168.162 91.6678L166.353 85.5366C166.353 85.5366 161.828 83.9877 160.083 83.5359C158.338 83.0841 153.49 80.0508 153.49 80.0508C153.554 80.1799 153.684 80.2444 153.748 80.3735L153.554 80.2444C153.231 79.9217 152.908 79.5345 152.585 79.1473C153.554 78.1146 154.201 76.8239 154.395 75.404C155.687 72.887 155.558 69.8537 154.007 67.5303C154.33 67.143 154.524 66.7558 154.653 66.304C154.718 66.1104 154.718 65.9168 154.718 65.6587C154.783 64.9487 154.395 64.3033 153.748 63.9807C153.361 63.787 152.843 63.787 152.456 63.9807C152.068 64.1743 151.745 64.497 151.357 64.5615C150.646 64.6906 150.064 64.1743 149.482 63.7225C148.642 63.0771 147.608 62.6899 146.509 62.6253C146.057 62.5608 145.539 62.6253 145.152 62.819C144.699 63.0126 144.376 63.3998 143.988 63.658C142.76 64.6906 140.95 64.9487 139.399 65.5296C139.076 65.6587 138.753 65.7877 138.688 66.0459C138.688 66.1104 138.688 66.175 138.688 66.2395C138.688 66.304 138.688 66.3686 138.688 66.4331C135.779 66.9494 132.871 69.1437 132.871 69.1437L132.418 69.5955C132.095 69.4019 131.707 69.4664 131.384 69.6601L130.414 70.4345C130.026 70.6927 129.962 71.209 130.22 71.5962L123.11 78.1792L122.981 78.3082C122.981 78.3082 117.487 82.4387 117.487 85.4075C117.487 87.5373 119.103 88.8281 120.008 89.4089C119.232 90.1834 118.586 91.0869 118.263 92.1195V92.1841V92.2486V92.3132V92.3777V92.4422V92.5068V92.6358V92.7004V92.7649V92.8295V92.894V92.9585V93.0876V93.2167V93.3458V93.4103V93.5394V93.6685V93.733L118.198 94.1202L118.133 94.3139V94.3784L118.069 94.572L118.004 94.7656L117.939 94.9592V95.0238L117.875 95.2174V95.2819L117.81 95.4756L117.745 95.7337V95.7983L117.681 96.3146L117.616 96.5727V96.6373L117.551 96.8954L117.422 97.4763V97.5408L117.358 97.7989V97.8635L117.228 98.4443L117.164 98.767L117.034 99.3479V99.4124L116.97 99.7351L116.84 100.316V100.38L116.776 100.703L116.647 101.349L116.582 101.671L116.453 102.252L116.388 102.575L116.259 103.156L116.194 103.478L116.065 104.059L116 104.317L115.871 104.898L115.806 105.156C115.742 105.35 115.742 105.479 115.677 105.673L115.612 105.931C115.548 106.124 115.548 106.254 115.483 106.383L115.418 106.576C115.354 106.705 115.354 106.899 115.289 107.028L115.225 107.222L115.16 107.415C114.966 108.254 114.772 108.771 114.578 108.9C114.449 109.029 114.32 109.222 114.255 109.416V109.48V109.545V109.61V109.674V109.739V109.803V109.868V109.932V109.997V110.061C114.255 110.126 114.255 110.126 114.255 110.19V110.255V110.319V110.384V110.449V110.513V110.578V110.642V110.707V110.771C114.255 110.836 114.255 110.965 114.255 111.029V111.094V111.158V111.223V111.288V111.352V111.417V111.481V111.546V111.61C114.255 111.675 114.255 111.675 114.255 111.739V111.868V111.933V111.997V112.062V112.127V112.191V112.256V112.32V112.385V112.578L115.095 112.836C115.095 112.836 115.483 113.03 116.129 113.353C116.065 116.128 115.806 119.871 115.095 122.13C113.544 122.195 109.73 122.388 109.019 122.066C108.179 121.743 102.62 120.839 104.301 124.841C105.012 126.519 106.628 127.745 108.179 128.648C107.985 128.713 107.791 128.778 107.597 128.778C106.175 129.036 105.788 129.552 105.852 130.004C105.723 130.843 107.145 131.746 107.274 131.811C107.468 131.875 113.35 132.843 114.772 132.392C116.194 131.94 121.818 130.907 121.818 130.907C121.818 130.907 121.818 130.843 121.818 130.714C121.818 130.714 121.753 129.036 121.559 127.422C122.205 127.358 122.916 127.229 123.563 127.229C123.757 128.068 124.274 128.778 125.049 129.1C128.798 130.972 130.026 128.39 130.026 128.39C130.026 128.39 135.068 129.358 137.912 128.648C138.235 128.907 138.429 129.1 138.623 129.229C139.528 129.875 141.984 130.326 144.764 130.391C145.475 130.456 146.25 130.456 146.961 130.326C148.19 130.262 149.418 130.068 150.581 129.746C153.878 128.907 154.653 125.809 154.783 124.389C154.912 124.324 154.976 124.195 155.041 123.937C155.106 123.808 155.17 123.679 155.17 123.485C155.235 122.84 155.364 122.195 155.558 121.614L159.63 121.807C161.44 125.099 163.121 127.809 163.121 127.809L165.9 127.487C164.543 126.519 163.315 125.357 162.28 124.066C160.858 122.001 160.858 112.062 160.858 112.062L160.988 105.995V106.06V105.737C161.246 107.544 163.315 112.772 163.509 112.836C163.703 112.901 163.832 112.966 164.026 112.966L164.155 113.353C165.318 116.451 168.292 124.26 168.486 125.551C168.744 127.1 179.603 127.745 182.06 126.906C184.774 126.712 173.14 124.712 173.14 124.712ZM134.357 90.2479L130.35 96.25C128.928 93.7976 127.441 91.5387 126.084 90.0543C129.639 90.1188 133.711 90.2479 134.357 90.2479ZM133.775 74.9522C134.099 75.0813 134.486 75.0813 134.745 74.8232L135.068 74.565C135.391 74.3068 135.521 73.7905 135.262 73.4033L135.456 73.2097C136.878 72.9515 138.235 72.6288 139.593 72.1771C139.657 73.4033 139.981 74.6295 140.627 75.6622C140.756 76.3721 140.95 77.0175 141.273 77.5983C140.627 77.5338 139.981 77.5338 139.334 77.5338C138.753 77.5338 138.171 77.5338 137.654 77.6629C135.585 77.9856 135.327 81.7933 135.327 81.7933C135.327 81.7933 131.125 83.2777 128.604 83.3423C128.281 83.3423 127.958 83.2777 127.635 83.2132H127.376L127.7 82.2451C127.7 82.2451 127.57 82.3097 127.312 82.3097C127.376 82.1806 127.441 82.0515 127.57 81.9224C129.186 79.7926 131.966 76.8239 133.775 74.9522ZM125.114 121.162C124.791 121.678 124.532 122.259 124.274 122.84C123.304 123.034 121.947 123.163 121.236 122.517C120.913 122.259 120.525 122.13 120.072 122.13C120.589 121.162 120.977 119.097 121.3 116.902C122.916 116.902 124.403 115.547 124.403 115.547L126.407 116.257L126.471 116.386L126.536 116.451L126.601 116.58L126.665 116.644L126.73 116.773L126.795 116.838L126.859 116.967L126.924 117.031L126.989 117.161L127.053 117.225L127.118 117.354L127.182 117.419L127.247 117.548L127.312 117.612L127.376 117.741L127.441 117.806L127.506 117.935L127.57 118L127.635 118.129L127.7 118.193L127.764 118.322L127.829 118.387L127.893 118.516L127.958 118.58L128.023 118.71V118.774C128.152 118.968 128.281 119.226 128.411 119.419L128.475 119.549L128.54 119.613L128.604 119.742L128.669 119.807L128.734 119.936L128.798 120L128.863 120.065L128.928 120.129L128.992 120.194L129.057 120.258L129.122 120.323L129.186 120.388L129.251 120.452L129.315 120.517L129.38 120.581L129.445 120.646C127.893 121.162 126.536 121.227 125.114 121.162Z" fill="url(#paint0_linear)"/>
<path d="M181.413 126.97C179.022 127.745 168.421 127.164 168.163 125.615C167.969 124.389 165.06 116.709 163.961 113.675L163.509 112.449L169.003 111.288C169.003 111.288 169.197 112.256 169.455 113.611C169.972 116.128 170.748 120 171.007 121.872C171.459 124.776 172.364 124.26 172.364 124.26C172.364 124.26 183.74 126.196 181.413 126.97Z" fill="#FFBDC6"/>
<path d="M151.486 77.0175C151.486 77.0175 151.034 79.5345 154.718 81.9224C158.402 84.3104 155.235 92.8295 155.235 92.8295L152.52 93.0231C148.965 93.2167 145.863 90.5706 145.539 87.021C145.539 87.021 147.091 84.5685 144.247 78.2437L151.486 77.0175Z" fill="#FFBDC6"/>
<path d="M135.715 73.9196C135.715 73.9196 130.479 79.0182 128.023 82.5678C127.764 82.955 127.441 83.4068 127.247 83.8586C125.502 87.2146 121.3 81.7288 122.787 79.8572L123.757 78.9536L133.258 70.1118C133.258 70.1118 139.787 65.0133 143.083 68.692C146.38 72.1771 135.715 73.9196 135.715 73.9196Z" fill="#FFBDC6"/>
<path d="M147.996 80.1799C152.208 80.1799 155.623 76.7703 155.623 72.5643C155.623 68.3583 152.208 64.9487 147.996 64.9487C143.783 64.9487 140.368 68.3583 140.368 72.5643C140.368 76.7703 143.783 80.1799 147.996 80.1799Z" fill="#A66477"/>
<path d="M116.259 122.13C116.259 122.13 110.571 122.453 109.73 122.13C108.89 121.807 103.461 120.968 105.141 124.841C106.822 128.713 113.285 130.326 113.285 130.326L117.939 129.165L116.259 122.13Z" fill="#7679B4"/>
<path opacity="0.05" d="M116.259 122.13C116.259 122.13 110.571 122.453 109.73 122.13C108.89 121.807 103.461 120.968 105.141 124.841C106.822 128.713 113.285 130.326 113.285 130.326L117.939 129.165L116.259 122.13Z" fill="black"/>
<path d="M136.555 105.479L147.931 110.061L154.395 123.808C154.395 123.808 154.459 128.648 150.258 129.746C145.992 130.843 140.11 130.326 138.559 129.229C137.007 128.132 130.738 121.614 130.738 121.614L136.555 105.479Z" fill="#7679B4"/>
<path opacity="0.05" d="M135.779 105.479L145.669 109.158L151.292 120.194C151.292 120.194 151.357 124.066 147.672 124.905C143.988 125.809 138.882 125.357 137.524 124.518C136.232 123.614 130.738 118.451 130.738 118.451L135.779 105.479Z" fill="black"/>
<path d="M125.954 122.13C125.954 122.13 122.981 123.163 121.818 122.13C120.654 121.097 118.521 122.388 118.521 122.388L119.426 127.874C119.426 127.874 123.692 126.97 125.954 127.229V122.13Z" fill="#FFBDC6"/>
<path opacity="0.05" d="M125.954 122.13C125.954 122.13 122.981 123.163 121.818 122.13C120.654 121.097 118.521 122.388 118.521 122.388L119.426 127.874C119.426 127.874 123.692 126.97 125.954 127.229V122.13Z" fill="black"/>
<path d="M127.635 116.193L124.92 115.289C124.92 115.289 121.947 117.935 120.008 115.741C118.069 113.546 121.753 104.382 121.753 104.382L125.76 97.928L128.669 106.963L131.319 111.352L127.635 116.193Z" fill="#565388"/>
<path opacity="0.05" d="M127.635 116.193L124.92 115.289C124.92 115.289 121.947 117.935 120.008 115.741C118.069 113.546 121.753 104.382 121.753 104.382L125.76 97.928L128.669 106.963L131.319 111.352L127.635 116.193Z" fill="black"/>
<path d="M153.49 115.741L159.566 116.58L160.794 122.13L153.231 121.743L153.49 115.741Z" fill="#565388"/>
<path opacity="0.05" d="M153.49 115.741L159.566 116.58L160.794 122.13L153.231 121.743L153.49 115.741Z" fill="black"/>
<path opacity="0.1" d="M144.958 85.0848C144.958 85.0848 147.479 94.8302 155.623 87.7954L157.821 115.741C157.821 115.741 155.106 120.065 154.653 123.937C154.201 127.809 146.832 111.933 142.437 111.804C138.042 111.739 133.646 105.608 133.646 105.608L138.623 95.411L144.958 85.0848Z" fill="black"/>
<path d="M145.022 84.8267C145.022 84.8267 147.543 94.572 155.687 87.5373L157.885 115.483C157.885 115.483 155.17 119.807 154.718 123.679C154.265 127.551 146.897 111.675 142.501 111.546C138.106 111.481 133.711 105.35 133.711 105.35L138.688 95.1529L145.022 84.8267Z" fill="#F2F1F2"/>
<path opacity="0.1" d="M143.665 78.5664C143.665 78.5664 140.11 77.9856 138.042 78.3082C135.973 78.6309 135.779 82.3742 135.779 82.3742C135.779 82.3742 130.026 84.3749 128.087 83.7295C128.087 83.7295 118.521 83.0841 118.521 85.9238C118.521 88.7635 121.559 90.1834 121.559 90.1834C121.559 90.1834 134.874 90.6352 134.939 90.6352C137.977 89.7961 134.874 90.6352 134.874 90.6352L129.38 98.9606L134.486 105.995L139.916 101.994C139.916 101.994 140.562 98.2507 142.372 96.4436C143.665 95.0883 145.281 89.1508 146.121 85.7947C146.509 84.3749 146.25 82.8905 145.475 81.6643L143.665 78.5664Z" fill="black"/>
<path opacity="0.1" d="M128.023 82.5033C127.764 82.8905 127.441 83.3423 127.247 83.794C125.502 87.1501 121.3 81.6643 122.787 79.7926L123.757 78.8891C123.369 83.2132 126.924 82.7614 128.023 82.5033Z" fill="black"/>
<path opacity="0.1" d="M134.81 90.2479H134.745C134.745 90.2479 137.912 89.4089 134.81 90.2479Z" fill="black"/>
<path d="M143.406 78.5664C143.406 78.5664 139.851 77.9856 137.783 78.3082C135.715 78.6309 135.521 82.3742 135.521 82.3742C135.521 82.3742 129.768 84.3749 127.829 83.7295L128.152 82.826C128.152 82.826 122.981 84.4394 123.563 79.0182C123.563 79.0182 118.198 83.0841 118.198 85.9884C118.198 88.8926 121.236 90.2479 121.236 90.2479C121.236 90.2479 134.551 90.6997 134.616 90.6997C137.654 89.8607 134.551 90.6997 134.551 90.6997L129.057 99.0252L134.163 106.06L139.593 102.059C139.593 102.059 140.239 98.3153 142.049 96.4436C143.342 95.0883 144.958 89.1508 145.798 85.7947C146.186 84.3749 145.927 82.8905 145.152 81.6643L143.406 78.5664Z" fill="#565388"/>
<path opacity="0.1" d="M160.858 106.06V106.512C160.794 106.383 160.858 106.189 160.858 106.06Z" fill="black"/>
<path opacity="0.1" d="M169.455 113.675C167.645 114.256 165.706 114.256 163.896 113.74L163.444 112.514L168.938 111.352C169.003 111.288 169.197 112.256 169.455 113.675Z" fill="black"/>
<path opacity="0.1" d="M152.973 80.6962C152.973 80.6962 157.691 83.665 159.436 84.0522C161.182 84.4394 165.512 85.9884 165.512 85.9884L167.258 91.9905C167.258 91.9905 167.904 96.5727 167.258 99.0897C166.611 101.607 160.212 106.447 160.535 105.673L160.341 112.385C160.341 112.385 160.341 122.13 161.699 124.131C163.056 126.131 159.113 122.13 159.113 122.13C159.113 122.13 154.33 115.031 153.748 110.578C153.167 106.06 154.072 88.8281 154.072 88.8281L153.231 87.6664C153.296 87.6664 155.106 83.1487 152.973 80.6962Z" fill="black"/>
<path d="M153.231 80.6962C153.231 80.6962 157.95 83.665 159.695 84.0522C161.44 84.4394 165.771 85.9884 165.771 85.9884L167.516 91.9905C167.516 91.9905 168.162 96.5727 167.516 99.0897C166.87 101.607 169.778 113.159 169.778 113.159C169.778 113.159 167.064 114.45 163.25 113.159C162.992 113.095 160.471 106.447 160.794 105.737L160.6 112.449C160.6 112.449 160.6 122.195 161.957 124.195C162.862 125.486 163.896 126.583 165.125 127.551L162.41 127.874C162.41 127.874 154.589 115.095 154.007 110.578C153.425 106.124 154.33 88.8281 154.33 88.8281L153.49 87.6664C153.554 87.7309 155.364 83.1487 153.231 80.6962Z" fill="#565388"/>
<path d="M130.091 121.291C130.091 121.291 124.403 113.095 124.662 109.287C124.662 109.287 124.015 114.514 123.24 114.902C122.464 115.289 114.837 112.901 114.837 112.901C114.837 112.901 114.514 110.449 115.354 109.61C116.194 108.771 118.844 93.0876 118.844 93.0876C118.844 93.0876 119.749 88.8281 123.821 88.5699C127.893 88.3118 137.072 108.964 137.072 108.964C137.072 108.964 138.429 121.291 130.091 121.291Z" fill="#7679B4"/>
<path d="M116.711 110.126C116.711 110.126 116.905 122.001 114.772 123.937C112.639 125.873 120.977 126.906 120.977 126.906C120.977 126.906 119.555 124.002 120.719 121.743C121.882 119.484 122.658 110.126 122.658 110.126H116.711Z" fill="#FFBDC6"/>
<path opacity="0.05" d="M117.099 123.744C117.099 123.744 116.259 121.614 113.932 123.292C113.932 123.292 111.928 128.003 108.308 128.713C104.753 129.358 107.791 131.424 107.985 131.488C108.179 131.553 113.932 132.521 115.289 132.069C116.647 131.617 122.141 130.649 122.141 130.649C122.141 130.649 121.882 125.034 121.042 124.647C120.202 124.26 120.654 127.229 117.099 123.744Z" fill="black"/>
<path d="M117.099 123.937C117.099 123.937 116.259 121.807 113.932 123.485C113.932 123.485 111.928 128.197 108.308 128.907C104.753 129.552 107.791 131.617 107.985 131.682C108.179 131.746 113.932 132.714 115.289 132.263C116.647 131.811 122.141 130.843 122.141 130.843C122.141 130.843 121.882 125.228 121.042 124.841C120.202 124.453 120.654 127.422 117.099 123.937Z" fill="#7679B4"/>
<path d="M133.064 70.7572C133.775 71.8544 134.551 72.9515 135.391 73.9842C135.715 74.3714 135.65 74.8877 135.327 75.2104C135.327 75.2104 135.327 75.2104 135.262 75.2749L134.939 75.5331C134.551 75.8558 133.969 75.7912 133.711 75.404C133.711 75.404 133.711 75.404 133.711 75.3395C133 74.3068 132.03 73.4033 130.996 72.7579C130.608 72.4998 130.414 71.9835 130.673 71.5317C130.738 71.4671 130.802 71.3381 130.867 71.2735L131.836 70.4991C132.224 70.1764 132.806 70.2409 133.064 70.6281C133.064 70.6927 133.064 70.6927 133.064 70.7572Z" fill="#565388"/>
<path opacity="0.1" d="M152.456 80.0508C151.357 78.5019 151.551 77.2756 151.551 77.2756L144.311 78.4373C144.828 79.5345 145.216 80.6962 145.539 81.9224C147.996 82.6324 150.71 81.9224 152.456 80.0508Z" fill="black"/>
<path d="M147.414 81.9224C151.162 81.9224 154.201 78.8885 154.201 75.1459C154.201 71.4033 151.162 68.3693 147.414 68.3693C143.666 68.3693 140.627 71.4033 140.627 75.1459C140.627 78.8885 143.666 81.9224 147.414 81.9224Z" fill="#FFBDC6"/>
<path opacity="0.1" d="M144.376 71.6608C145.022 71.5317 145.604 71.209 146.25 71.1444C147.091 71.0799 147.802 71.5962 148.383 72.1771C148.965 72.6934 149.547 73.3388 150.323 73.5969C150.84 73.726 151.357 73.726 151.874 73.726C152.197 73.726 152.456 73.6615 152.714 73.5324C152.843 73.4033 152.973 73.2742 152.973 73.1451C153.425 72.1125 153.425 70.9508 152.973 69.9182C152.908 69.7891 152.908 69.6601 152.908 69.5955C152.908 69.531 152.973 69.4664 153.037 69.4019C153.554 68.7565 154.136 68.1111 154.395 67.3367C154.653 66.5622 154.33 65.5941 153.554 65.2714C153.167 65.0778 152.714 65.0778 152.262 65.2714C151.874 65.465 151.615 65.7877 151.163 65.8523C150.452 65.9813 149.87 65.465 149.353 65.0133C148.513 64.3679 147.543 64.0452 146.444 63.9161C145.992 63.8516 145.539 63.9161 145.087 64.1097C144.635 64.3033 144.311 64.626 143.988 64.9487C142.76 65.9168 141.079 66.2395 139.528 66.7558C139.205 66.8849 138.882 67.014 138.882 67.2721C138.817 67.5948 139.14 67.853 139.464 67.982C139.787 68.1111 140.175 68.1757 140.368 68.4338C140.627 68.7565 140.562 69.2083 140.627 69.6601C140.756 70.4991 141.467 70.9508 142.243 71.1444C142.889 71.209 143.73 71.7253 144.376 71.6608Z" fill="black"/>
<path d="M144.376 71.4671C145.022 71.3381 145.604 71.0154 146.25 70.9508C147.091 70.8863 147.802 71.4026 148.383 71.9834C148.965 72.4998 149.547 73.1451 150.323 73.4033C150.84 73.5324 151.357 73.5324 151.874 73.5324C152.132 73.5324 152.456 73.4678 152.714 73.3388C152.843 73.2097 152.973 73.0806 152.973 72.9515C153.425 71.9189 153.425 70.7572 152.973 69.7246C152.908 69.5955 152.908 69.4664 152.908 69.4019C152.908 69.3374 152.973 69.2728 153.037 69.2083C153.554 68.5629 154.136 67.9175 154.395 67.143C154.653 66.3686 154.33 65.4005 153.554 65.0778C153.167 64.8842 152.714 64.8842 152.262 65.0778C151.874 65.2714 151.615 65.5941 151.163 65.6587C150.452 65.7877 149.87 65.2714 149.353 64.8197C148.513 64.1743 147.543 63.8516 146.444 63.7225C145.992 63.658 145.539 63.7225 145.087 63.9161C144.635 64.1097 144.311 64.4324 143.988 64.7551C142.76 65.7232 141.079 66.0459 139.528 66.5622C139.205 66.6913 138.882 66.8204 138.882 67.0785C138.817 67.4012 139.14 67.6594 139.464 67.7884C139.787 67.9175 140.175 67.982 140.368 68.2402C140.627 68.5629 140.562 69.0147 140.627 69.4664C140.756 70.3054 141.467 70.7572 142.243 70.9508C142.889 71.0154 143.73 71.5962 144.376 71.4671Z" fill="#A66477"/>
<path opacity="0.05" d="M138.946 104.059C138.946 104.059 143.794 104.898 145.022 107.48C146.25 110.061 153.49 117.161 153.49 117.161" fill="black"/>
<g opacity="0.05">
<path opacity="0.05" d="M123.369 114.256C122.593 114.579 114.966 112.256 114.966 112.256C114.901 111.546 114.901 110.771 114.966 110.061C114.514 111.094 114.772 112.901 114.772 112.901C114.772 112.901 122.399 115.289 123.175 114.902C123.433 114.773 123.692 114.127 123.886 113.288C123.757 113.805 123.563 114.192 123.369 114.256Z" fill="black"/>
<path opacity="0.05" d="M118.974 92.5068C118.909 92.7004 118.844 92.8295 118.844 93.0231C118.844 93.0231 117.034 103.995 115.936 108.061C116.905 104.769 118.78 93.4749 118.974 92.5068Z" fill="black"/>
<path opacity="0.05" d="M130.285 120.71C130.285 120.71 124.597 112.514 124.856 108.706C124.856 108.706 124.791 109.158 124.662 109.868C124.92 113.869 130.091 121.356 130.091 121.356C134.034 121.356 135.779 118.58 136.555 115.612C135.715 118.258 133.969 120.71 130.285 120.71Z" fill="black"/>
</g>
<path d="M115.612 113.095C115.612 113.095 120.783 115.934 122.658 114.579C124.532 113.224 123.304 111.094 123.304 111.094L121.882 108.706H117.034L115.418 111.481L115.612 113.095Z" fill="#7679B4"/>
<path d="M150.904 124.26C150.904 124.26 151.228 117.483 142.566 117.548C133.905 117.612 142.243 117.548 142.243 117.548C142.243 117.548 138.882 116.515 134.616 118.903C130.35 121.291 125.567 120.775 125.567 120.775C125.567 120.775 121.688 127.229 125.308 129.1C128.928 130.972 130.156 128.455 130.156 128.455C130.156 128.455 137.589 129.875 139.334 127.939C139.334 127.939 143.083 132.004 148.771 129.81C148.771 129.746 152.973 127.939 150.904 124.26Z" fill="#7679B4"/>
<path d="M19.0443 73.0161C19.0443 73.0161 26.9947 80.9543 22.5347 92.7004C18.0747 104.446 30.2265 124.066 30.2265 124.066C30.2265 124.066 30.0973 124.066 29.8387 124.002C13.5501 121.097 5.40583 102.51 14.5197 88.6345C17.8808 83.4714 20.5956 77.4693 19.0443 73.0161Z" fill="#F9C93A"/>
<path d="M19.0443 73.0161C19.0443 73.0161 23.5043 82.7614 19.0443 90.6997C14.5843 98.638 18.2687 120.904 30.1619 124.066" stroke="#535461" stroke-width="2" stroke-miterlimit="10"/>
<path d="M4.88873 105.092C4.88873 105.092 13.938 103.672 14.7782 111.739C15.6185 119.807 32.2303 120.968 32.2303 120.968L31.9071 121.162C18.204 130.197 5.08264 126.906 7.0864 114.966C7.79741 110.578 7.73277 106.124 4.88873 105.092Z" fill="#F9C93A"/>
<path opacity="0.2" d="M4.88873 105.092C4.88873 105.092 13.938 103.672 14.7782 111.739C15.6185 119.807 32.2303 120.968 32.2303 120.968L31.9071 121.162C18.204 130.197 5.08264 126.906 7.0864 114.966C7.79741 110.578 7.73277 106.124 4.88873 105.092Z" fill="#F5F5F5"/>
<path d="M4.88873 105.092C4.88873 105.092 11.9342 106.641 11.3525 113.03C10.7707 119.419 21.8237 127.1 32.2303 120.968" stroke="#535461" stroke-width="2" stroke-miterlimit="10"/>
<path d="M23.2457 85.2139C23.1811 86.5047 23.8275 86.9564 23.8275 86.9564C24.9263 87.6664 25.9605 87.6018 26.7361 87.2146L36.4317 94.572C37.5952 95.3465 38.5001 95.6046 39.2758 95.6692C38.7587 99.0897 38.5001 102.51 38.5001 105.931C38.5001 108.512 38.694 110.707 39.2111 111.675C40.7624 114.514 41.021 124.518 41.021 124.518L44.4468 126.131C44.576 127.68 44.6407 129.1 44.4468 130.133C43.9297 132.392 47.7433 142.524 49.9409 148.268C49.8763 149.688 49.8763 150.656 49.9409 150.914C50.1348 151.818 49.2945 156.594 48.9067 158.465C48.0664 159.369 47.8725 160.789 48.0664 161.692C48.2603 162.338 48.3896 163.048 48.325 163.758C48.2604 164.726 48.2603 165.758 48.3896 166.726C48.4543 167.501 48.4543 168.34 48.2603 169.114C48.2603 169.114 49.1653 171.115 49.8763 169.114C50.5873 167.114 52.3971 166.855 53.3021 166.404C53.8838 166.081 54.0777 164.855 54.207 164.016C54.207 163.693 54.0777 163.37 53.7545 163.241C53.496 163.048 53.1728 162.467 53.3021 160.789C53.3021 160.466 53.3021 160.208 53.3021 159.885L53.7545 156.465C53.7545 156.465 53.8192 155.303 54.0777 153.496C54.6594 153.238 55.2412 153.044 55.629 152.85C56.2107 152.528 56.4046 151.302 56.5339 150.463C56.5339 150.14 56.4046 149.817 56.0815 149.688C55.8229 149.494 55.4997 148.914 55.629 147.236C55.629 147.042 55.629 146.913 55.629 146.784C55.8229 146.203 56.0815 145.622 56.2754 145.041C58.5377 139.62 57.8913 132.65 57.8913 132.65V128.132C58.1498 128.132 58.3438 128.068 58.3438 128.068C58.1499 127.164 62.6745 106.189 62.6745 106.189C62.6745 105.802 62.6745 105.415 62.6745 105.027C62.7391 99.7997 61.5756 97.4763 60.9293 96.5727C60.9939 96.5727 61.0585 96.5727 61.1232 96.5727C61.3171 96.5727 61.511 96.5727 61.7049 96.5727L63.3855 105.931L64.7428 114.708C68.6211 112.256 66.1002 105.479 66.1002 105.479L65.3246 95.4756C65.8417 95.2174 66.2941 94.9592 66.7466 94.6366C66.7466 94.6366 66.682 94.5075 66.6173 94.2493L66.7466 94.1848C66.7466 94.1848 64.1611 85.9884 64.0965 79.4699C64.0965 78.0501 64.2904 76.6302 64.6782 75.2749C65.1953 73.8551 65.3892 72.3061 65.3892 70.8218C65.4539 67.2076 63.7733 65.4005 63.7733 65.4005L59.0548 63.658L58.9255 63.5934C59.3133 62.5608 59.6365 61.3991 59.9597 60.3019C60.5414 58.2367 60.8646 56.1715 60.8646 54.0417C60.8646 51.2665 60.3475 48.5559 59.2487 46.0389C57.2449 41.3921 53.8192 38.3588 49.9409 38.3588C43.7357 38.3588 38.694 46.168 38.694 55.7842C38.694 55.8488 38.694 55.9133 38.694 55.9778C38.694 56.0424 38.694 56.1069 38.694 56.1715C38.694 58.5594 39.0172 60.9473 39.6636 63.2707L38.5001 63.658L33.9109 68.8211C33.9109 68.8211 24.9909 79.6636 23.6336 82.5678C23.3104 83.8586 23.1811 84.633 23.2457 85.2139ZM29.4509 83.8586C29.5155 83.7295 29.5802 83.6004 29.5802 83.6004L38.7587 74.6941C41.2149 76.3721 42.0552 80.0508 42.0552 83.4713C42.0552 85.2784 41.7966 87.0855 41.3442 88.8926C41.3442 88.8926 40.31 88.2472 40.31 88.8926C40.31 89.538 38.9526 92.1195 38.0477 92.3132C37.272 92.5068 31.5839 86.2465 29.4509 83.8586Z" fill="url(#paint1_linear)"/>
<path d="M53.1081 143.621C53.1081 143.621 55.5644 143.621 55.3058 146.719C55.1765 148.397 55.4351 148.978 55.7583 149.172C56.0168 149.301 56.2107 149.624 56.2107 149.946C56.1461 150.785 55.9522 152.012 55.3705 152.27C54.4655 152.721 52.7203 152.915 52.074 154.916C51.4276 156.916 50.5227 154.916 50.5227 154.916C50.6519 154.141 50.7166 153.367 50.6519 152.528C50.5227 151.56 50.5227 150.592 50.5873 149.624C50.5873 148.914 50.5227 148.268 50.3287 147.623C49.8763 146.138 50.6519 143.363 53.1081 143.621Z" fill="#E14B5A"/>
<path opacity="0.05" d="M53.1081 143.621C53.1081 143.621 55.5644 143.621 55.3058 146.719C55.1765 148.397 55.4351 148.978 55.7583 149.172C56.0168 149.301 56.2107 149.624 56.2107 149.946C56.1461 150.785 55.9522 152.012 55.3705 152.27C54.4655 152.721 52.7203 152.915 52.074 154.916C51.4276 156.916 50.5227 154.916 50.5227 154.916C50.6519 154.141 50.7166 153.367 50.6519 152.528C50.5227 151.56 50.5227 150.592 50.5873 149.624C50.5873 148.914 50.5227 148.268 50.3287 147.623C49.8763 146.138 50.6519 143.363 53.1081 143.621Z" fill="black"/>
<path d="M29.1924 83.6004C29.1924 83.6004 37.4013 92.894 38.3062 92.7004C39.2111 92.5068 40.5039 90.0543 40.5039 89.4089C40.5039 88.7635 41.4734 89.4089 41.4734 89.4089C41.4734 89.4089 41.1502 96.0564 40.2453 96.0564C39.3404 96.0564 38.2416 96.0564 36.6903 94.9592L25.8312 86.5692L29.1924 83.6004Z" fill="#FFB296"/>
<path d="M64.6136 93.7975L65.5185 105.737C65.5185 105.737 67.9747 112.385 64.1611 114.837L62.8037 106.189L60.6061 93.7975H64.6136Z" fill="#FFB296"/>
<path d="M43.3479 119.484C43.3479 119.484 45.0931 126.777 44.4467 129.875C43.8004 132.973 51.2983 151.56 51.2983 151.56L53.9484 148.914L52.2032 128.326L50.0056 111.029L43.3479 119.484Z" fill="#FFB296"/>
<path opacity="0.05" d="M43.3479 119.484C43.3479 119.484 45.0931 126.777 44.4467 129.875C43.8004 132.973 51.2983 151.56 51.2983 151.56L53.9484 148.914L52.2032 128.326L50.0056 111.029L43.3479 119.484Z" fill="black"/>
<path d="M57.5681 125.422V132.263C57.5681 132.263 58.2145 139.104 56.0168 144.46C53.8192 149.817 53.5606 155.755 53.5606 155.755L53.1081 159.046L48.6482 158.401C48.6482 158.401 50.0056 151.302 49.747 150.204C49.4885 149.107 50.6519 132.263 50.6519 132.263C50.6519 132.263 49.747 126.261 50.1995 123.873C50.6519 121.42 52.3971 118.58 52.3971 118.58L57.5681 125.422Z" fill="#FFB296"/>
<path d="M50.9105 156.852C50.9105 156.852 53.3667 156.852 53.1081 159.95C52.9789 161.628 53.2374 162.209 53.5606 162.402C53.8192 162.531 54.0131 162.854 54.0131 163.177C53.9484 164.016 53.7545 165.242 53.1728 165.5C52.2679 165.952 50.5226 166.145 49.8763 168.146C49.2299 170.147 48.325 168.146 48.325 168.146C48.4543 167.372 48.5189 166.597 48.4543 165.758C48.325 164.79 48.325 163.822 48.3896 162.854C48.3896 162.144 48.325 161.499 48.1311 160.853C47.6786 159.433 48.4543 156.658 50.9105 156.852Z" fill="#E14B5A"/>
<path d="M49.8116 58.8176C53.4886 58.8176 56.4693 55.8414 56.4693 52.1701C56.4693 48.4987 53.4886 45.5226 49.8116 45.5226C46.1347 45.5226 43.154 48.4987 43.154 52.1701C43.154 55.8414 46.1347 58.8176 49.8116 58.8176Z" fill="#FFB296"/>
<path d="M46.4505 53.2672C46.4505 53.2672 48.4543 62.5608 40.8917 64.7551C33.3291 66.9494 49.2945 69.5955 49.2945 69.5955L60.6061 65.5941C60.6061 65.5941 48.0018 59.3984 51.1044 53.2027H46.4505V53.2672Z" fill="#FFB296"/>
<path opacity="0.1" d="M49.8116 65.6587L58.7962 65.0778L63.3208 66.7558C63.3208 66.7558 66.2295 69.8537 64.2257 76.0494C62.222 82.2451 66.2295 95.0883 66.2295 95.0883C66.2295 95.0883 63.2562 97.1536 60.6707 96.9599C60.4768 96.9599 60.2182 96.8954 60.0243 96.8309C60.0243 96.8309 62.4805 98.3798 62.222 106.318C62.222 106.318 57.762 126.906 58.0206 127.809C58.0206 127.809 53.1728 128.261 51.3629 127.164C51.3629 127.164 50.0055 115.418 48.7128 115.418C48.7128 115.418 45.6102 124.905 45.8041 126.454L41.1502 124.26C41.1502 124.26 40.8917 114.385 39.405 111.675C37.7245 108.641 39.405 92.8295 40.7624 91.5387C42.1198 90.1834 43.865 78.9536 39.0172 75.5976L30.1619 84.2458C30.1619 84.2458 28.1581 89.538 24.6031 87.3437C24.6031 87.3437 23.2457 86.4401 24.6031 83.6004C25.9605 80.6962 34.5572 70.1118 34.5572 70.1118L39.0172 65.0133L42.5723 63.9161C42.443 63.9161 47.3554 67.6594 49.8116 65.6587Z" fill="black"/>
<path d="M49.8116 65.2069L58.7962 64.626L63.3208 66.304C63.3208 66.304 66.2295 69.4019 64.2257 75.5976C62.222 81.7933 66.2295 94.6366 66.2295 94.6366C66.2295 94.6366 63.2562 96.7018 60.6707 96.5082C60.4768 96.5082 60.2182 96.4436 60.0243 96.3791C60.0243 96.3791 62.4805 97.928 62.222 105.866C62.222 105.866 57.762 126.454 58.0206 127.358C58.0206 127.358 53.1728 127.809 51.3629 126.712C51.3629 126.712 50.0055 114.966 48.7128 114.966C48.7128 114.966 45.6102 124.453 45.8041 126.002L41.1502 123.808C41.1502 123.808 40.8917 113.934 39.405 111.223C37.7245 108.19 39.405 92.3777 40.7624 91.0869C42.1198 89.7316 43.865 78.5019 39.0172 75.1459L30.1619 83.794C30.1619 83.794 28.1581 89.0862 24.6031 86.8919C24.6031 86.8919 23.2457 85.9884 24.6031 83.1487C25.9605 80.2444 34.5572 69.6601 34.5572 69.6601L39.0172 64.5615L42.5723 63.4643C42.443 63.4643 47.3554 67.2076 49.8116 65.2069Z" fill="#E14B5A"/>
<path opacity="0.1" d="M58.9902 73.3388C58.9902 73.3388 58.3438 81.5352 57.6328 83.5359C56.9864 85.5366 58.9902 95.7337 58.9902 95.7337" fill="black"/>
<path opacity="0.1" d="M58.9901 47.7169C60.8 52.041 61.0585 56.8168 59.7011 61.3345C57.4388 68.8856 55.1119 74.3714 50.0056 74.3714C43.9943 74.3714 39.1465 66.6913 39.1465 57.2686C39.1465 47.8459 43.9943 40.1658 50.0056 40.1658C53.7545 40.1658 57.051 43.1992 58.9901 47.7169Z" fill="black"/>
<path d="M58.9901 47.2651C60.8 51.5892 61.0585 56.3651 59.7011 60.8828C57.4388 68.4338 55.1119 73.9196 50.0056 73.9196C43.9943 73.9196 39.1465 66.2395 39.1465 56.8168C39.1465 47.3942 43.9943 39.7141 50.0056 39.7141C53.7545 39.7786 57.051 42.7474 58.9901 47.2651Z" fill="#632652"/>
<path d="M79.5448 20.0943C77.541 17.7709 74.0506 17.5127 71.7237 19.5135C69.3967 21.5142 69.1382 24.9992 71.1419 27.3226L78.3813 35.7127L86.7842 28.4843C89.1111 26.4836 89.3697 22.9985 87.3659 20.6751C85.3621 18.3518 81.8717 18.0936 79.5448 20.0943Z" fill="#F9C93A"/>
<path opacity="0.2" d="M72.6286 20.6106C74.9555 18.6099 78.446 18.8681 80.4497 21.1915C82.6474 19.3198 85.8792 19.3844 87.9476 21.3851C86.3317 18.8035 82.9706 17.9645 80.3204 19.5135C80.0619 19.6425 79.8033 19.8362 79.5448 20.0298C77.541 17.7064 74.0506 17.4482 71.7237 19.4489C69.3967 21.4496 69.1382 24.9347 71.1419 27.2581L71.5944 27.7744C70.1077 25.5156 70.5602 22.4177 72.6286 20.6106Z" fill="white"/>
<g opacity="0.5">
<path opacity="0.5" d="M27.3179 32.034C26.1544 30.8077 24.2153 30.7432 22.9872 31.9049C21.8237 33.002 21.6944 34.7446 22.664 35.9708L26.6715 40.5531L31.2607 36.5517C32.6181 35.5191 32.812 33.5829 31.7778 32.2921C30.7436 30.9368 28.8045 30.7432 27.5118 31.7758C27.5118 31.9049 27.3825 31.9694 27.3179 32.034Z" fill="#F9C93A"/>
<path opacity="0.2" d="M23.5054 32.2921C24.7981 31.195 26.7372 31.324 27.8361 32.6148C29.0642 31.5822 30.8094 31.6467 31.9728 32.7439C31.0679 31.324 29.1934 30.8723 27.7714 31.7113C27.6422 31.7758 27.5129 31.9049 27.3836 32.034C26.2201 30.8077 24.281 30.7432 23.0529 31.9049C21.8894 33.002 21.7602 34.7446 22.7297 35.9708L22.9236 36.229C22.148 35.0027 22.3419 33.3247 23.5054 32.2921Z" fill="white"/>
</g>
<g opacity="0.5">
<path opacity="0.5" d="M107.598 72.3067C106.434 71.0805 104.495 71.016 103.267 72.1777C102.103 73.2748 101.974 75.0174 102.944 76.2436L106.951 80.8259L111.54 76.8245C112.898 75.7918 113.092 73.8557 112.058 72.5649C111.023 71.2096 109.084 71.016 107.791 72.0486C107.727 72.1777 107.662 72.2422 107.598 72.3067Z" fill="#F9C93A"/>
<path opacity="0.2" d="M103.784 72.6288C105.077 71.5317 107.016 71.6608 108.114 72.9515C109.343 71.9189 111.088 71.9835 112.251 73.0806C111.346 71.6608 109.472 71.209 108.05 72.048C107.921 72.1125 107.791 72.2416 107.662 72.3707C106.628 71.0154 104.689 70.8218 103.396 71.8544C102.039 72.887 101.845 74.8232 102.879 76.1139C102.943 76.1785 103.008 76.243 103.073 76.3075L103.267 76.5657C102.362 75.2749 102.62 73.5969 103.784 72.6288Z" fill="white"/>
</g>
<path opacity="0.1" d="M225.69 206.547C260.103 206.547 288 205.593 288 204.417C288 203.241 260.103 202.287 225.69 202.287C191.277 202.287 163.379 203.241 163.379 204.417C163.379 205.593 191.277 206.547 225.69 206.547Z" fill="#F9C93A"/>
<path d="M152.262 141.298C154.589 143.751 156.722 146.332 158.532 149.172C162.41 155.109 164.155 162.144 163.767 169.243C162.733 186.088 176.113 203.062 176.113 203.062" stroke="#535461" stroke-width="2" stroke-miterlimit="10"/>
<path d="M152.908 130.649C151.939 128.261 149.288 127.164 146.897 128.068C144.505 129.036 143.406 131.682 144.311 134.07C145.281 136.458 152.262 141.556 152.262 141.556C152.262 141.556 153.813 133.037 152.908 130.649Z" fill="#F9C93A"/>
<path d="M165.189 140.911C165.642 138.458 164.026 136.07 161.569 135.554C159.049 135.038 156.657 136.651 156.14 139.104C155.623 141.621 158.79 149.688 158.79 149.688C158.79 149.688 164.737 143.363 165.189 140.911Z" fill="#F9C93A"/>
<path d="M173.851 163.306C175.531 161.37 175.337 158.465 173.463 156.787C171.524 155.109 168.615 155.303 166.934 157.175C165.254 159.111 163.832 167.63 163.832 167.63C163.832 167.63 172.17 165.242 173.851 163.306Z" fill="#F9C93A"/>
<path d="M176.63 181.699C177.923 179.505 177.276 176.73 175.079 175.375C172.881 174.019 170.102 174.729 168.744 176.923C167.387 179.118 167.451 187.766 167.451 187.766C167.451 187.766 175.273 183.958 176.63 181.699C176.63 181.764 176.63 181.764 176.63 181.699Z" fill="#F9C93A"/>
<path d="M147.479 147.881C148.383 145.493 151.098 144.331 153.425 145.299C155.752 146.268 160.858 153.302 160.858 153.302C160.858 153.302 152.262 154.787 149.935 153.819C147.672 152.786 146.574 150.204 147.479 147.881Z" fill="#F9C93A"/>
<path d="M153.296 175.31C150.775 175.052 148.901 172.793 149.159 170.276C149.418 167.759 151.68 165.887 154.201 166.145C156.722 166.339 163.703 171.567 163.703 171.567C163.703 171.567 155.946 175.504 153.425 175.31C153.361 175.31 153.361 175.31 153.296 175.31Z" fill="#F9C93A"/>
<path d="M159.695 195.833C157.368 195.188 155.946 192.735 156.463 190.412C157.045 187.96 159.501 186.411 161.957 186.992C164.414 187.637 170.425 193.962 170.425 193.962C170.425 193.962 162.151 196.414 159.695 195.833Z" fill="#F9C93A"/>
<path opacity="0.25" d="M152.908 130.649C151.939 128.261 149.288 127.164 146.897 128.068C144.505 129.036 143.406 131.682 144.311 134.07C145.281 136.458 152.262 141.556 152.262 141.556C152.262 141.556 153.813 133.037 152.908 130.649Z" fill="black"/>
<path opacity="0.25" d="M165.189 140.911C165.642 138.458 164.026 136.07 161.569 135.554C159.049 135.038 156.657 136.651 156.14 139.104C155.623 141.621 158.79 149.688 158.79 149.688C158.79 149.688 164.737 143.363 165.189 140.911Z" fill="black"/>
<path opacity="0.25" d="M173.851 163.306C175.531 161.37 175.337 158.465 173.463 156.787C171.524 155.109 168.615 155.303 166.934 157.175C165.254 159.111 163.832 167.63 163.832 167.63C163.832 167.63 172.17 165.242 173.851 163.306Z" fill="black"/>
<path opacity="0.25" d="M176.63 181.699C177.923 179.505 177.276 176.73 175.079 175.375C172.881 174.019 170.102 174.729 168.744 176.923C167.387 179.118 167.451 187.766 167.451 187.766C167.451 187.766 175.273 183.958 176.63 181.699C176.63 181.764 176.63 181.764 176.63 181.699Z" fill="black"/>
<path opacity="0.25" d="M147.479 147.881C148.383 145.493 151.098 144.331 153.425 145.299C155.752 146.268 160.858 153.302 160.858 153.302C160.858 153.302 152.262 154.787 149.935 153.819C147.672 152.786 146.574 150.204 147.479 147.881Z" fill="black"/>
<path opacity="0.25" d="M153.296 175.31C150.775 175.052 148.901 172.793 149.159 170.276C149.418 167.759 151.68 165.887 154.201 166.145C156.722 166.339 163.703 171.567 163.703 171.567C163.703 171.567 155.946 175.504 153.425 175.31C153.361 175.31 153.361 175.31 153.296 175.31Z" fill="black"/>
<path opacity="0.25" d="M159.695 195.833C157.368 195.188 155.946 192.735 156.463 190.412C157.045 187.96 159.501 186.411 161.957 186.992C164.414 187.637 170.425 193.962 170.425 193.962C170.425 193.962 162.151 196.414 159.695 195.833Z" fill="black"/>
<path d="M129.186 155.561C132.289 156.852 135.327 158.401 138.171 160.208C144.117 164.016 148.577 169.76 151.098 176.407C156.98 192.219 176.113 202.287 176.113 202.287" stroke="#535461" stroke-width="2" stroke-miterlimit="10"/>
<path d="M118.974 145.687C117.164 147.494 117.164 150.398 118.974 152.205C120.783 153.948 129.315 155.819 129.315 155.819C129.315 155.819 127.247 147.365 125.437 145.622C123.563 143.88 120.719 143.944 118.974 145.687Z" fill="#F9C93A"/>
<path d="M140.821 149.946C140.821 149.882 140.821 149.817 140.756 149.753C140.11 147.3 137.654 145.816 135.197 146.397C132.741 147.042 131.255 149.494 131.836 151.947C132.418 154.399 138.559 160.595 138.559 160.595C138.559 160.595 141.403 152.463 140.821 149.946Z" fill="#F9C93A"/>
<path d="M157.821 166.984C157.821 166.92 157.885 166.855 157.885 166.791C158.596 164.338 157.174 161.821 154.718 161.111C152.262 160.402 149.741 161.821 149.03 164.274C148.254 166.726 150.452 175.116 150.452 175.116C150.452 175.116 157.045 169.372 157.821 166.984Z" fill="#F9C93A"/>
<path d="M167.839 182.732C168.162 180.215 166.417 177.892 163.896 177.569C161.376 177.246 159.049 178.989 158.725 181.506C158.402 184.023 161.957 191.961 161.957 191.961C161.957 191.961 167.451 185.249 167.839 182.732Z" fill="#F9C93A"/>
<path d="M127.441 163.499C127.312 160.982 129.315 158.788 131.836 158.724C134.357 158.659 141.855 163.048 141.855 163.048C141.855 163.048 134.616 167.823 132.095 167.953C129.639 167.953 127.57 166.016 127.441 163.499Z" fill="#F9C93A"/>
<path d="M144.053 186.217C141.726 186.992 139.205 185.765 138.3 183.442C137.395 181.054 138.623 178.408 141.015 177.504C143.406 176.665 151.874 178.601 151.874 178.601C151.874 178.601 146.444 185.378 144.053 186.217Z" fill="#F9C93A"/>
<path d="M152.843 198.673C152.391 196.156 154.072 193.768 156.528 193.316C159.049 192.929 167.064 196.285 167.064 196.285C167.064 196.285 160.535 202.029 158.014 202.416C155.623 202.739 153.296 201.061 152.843 198.673Z" fill="#F9C93A"/>
<path d="M184.516 124.26L185.162 119.484L204.618 121.678L204.941 124.26L214.895 203.707H212.568L197.96 126.519L195.504 203.707H193.371L191.432 126.39L176.436 203.707H174.368L184.516 124.26Z" fill="#464353"/>
<path d="M228.146 103.995H215.736V111.675H228.146V103.995Z" fill="#464353"/>
<path d="M156.205 117.419L148.707 120.517H147.091C146.574 120.517 146.186 120.129 146.186 119.613V98.5089C146.186 97.9926 146.574 97.6053 147.091 97.6053H148.707L156.205 100.639V117.419Z" fill="#464353"/>
<path d="M171.524 101.607H156.205V116.451H171.524V101.607Z" fill="#464353"/>
<path d="M198.154 73.726H188.265V75.5331H198.154V73.726Z" fill="#514E7F"/>
<path d="M209.401 76.0494H181.607V96.3146H209.401V76.0494Z" fill="#514E7F"/>
<path opacity="0.1" d="M209.401 93.9266H181.607V96.3146H209.401V93.9266Z" fill="black"/>
<path opacity="0.1" d="M171.782 101.607H171.136V116.451H171.782V101.607Z" fill="black"/>
<path opacity="0.1" d="M219.937 103.995H215.736V111.675H219.937V103.995Z" fill="black"/>
<path opacity="0.1" d="M185.162 119.484L204.618 121.678L204.941 124.26H184.516L185.162 119.484Z" fill="black"/>
<path d="M219.614 96.7663V121.42C219.614 122.775 218.515 123.873 217.158 123.873H174.044C172.687 123.873 171.588 122.775 171.588 121.42V96.7663C171.588 95.411 172.687 94.3139 174.044 94.3139H217.158C218.515 94.3139 219.614 95.411 219.614 96.7663Z" fill="#514E7F"/>
<path d="M157.562 101.865V116.193C157.562 116.838 157.045 117.419 156.334 117.419H156.205V100.639H156.334C157.045 100.639 157.562 101.155 157.562 101.865Z" fill="#514E7F"/>
<path d="M148.707 97.6053V120.517H147.155C146.638 120.517 146.186 120.065 146.186 119.549V98.638C146.186 98.1217 146.638 97.6699 147.155 97.6699H148.707V97.6053Z" fill="#514E7F"/>
<path opacity="0.1" d="M228.146 103.995H225.948V111.675H228.146V103.995Z" fill="black"/>
<path d="M230.667 103.285V113.03C230.667 113.934 229.891 114.708 228.986 114.708H228.017C227.112 114.708 226.336 113.934 226.336 113.03V103.285C226.336 102.381 227.112 101.607 228.017 101.607H228.986C229.891 101.607 230.667 102.381 230.667 103.285Z" fill="#514E7F"/>
<path d="M209.401 89.8607C217.04 89.8607 223.233 83.6772 223.233 76.0494C223.233 68.4216 217.04 62.2381 209.401 62.2381C201.762 62.2381 195.569 68.4216 195.569 76.0494C195.569 83.6772 201.762 89.8607 209.401 89.8607Z" fill="#464353"/>
<path d="M209.401 86.4401C215.148 86.4401 219.808 81.788 219.808 76.0494C219.808 70.3108 215.148 65.6587 209.401 65.6587C203.654 65.6587 198.994 70.3108 198.994 76.0494C198.994 81.788 203.654 86.4401 209.401 86.4401Z" fill="#F9C93A"/>
<path d="M183.74 86.4401C189.309 86.4401 193.823 81.9325 193.823 76.3721C193.823 70.8117 189.309 66.304 183.74 66.304C178.171 66.304 173.657 70.8117 173.657 76.3721C173.657 81.9325 178.171 86.4401 183.74 86.4401Z" fill="#464353"/>
<path d="M183.74 83.9231C187.917 83.9231 191.303 80.5424 191.303 76.3721C191.303 72.2018 187.917 68.8211 183.74 68.8211C179.563 68.8211 176.178 72.2018 176.178 76.3721C176.178 80.5424 179.563 83.9231 183.74 83.9231Z" fill="#F9C93A"/>
<path d="M184.516 100.058C185.265 100.058 185.873 99.451 185.873 98.7025C185.873 97.954 185.265 97.3472 184.516 97.3472C183.766 97.3472 183.158 97.954 183.158 98.7025C183.158 99.451 183.766 100.058 184.516 100.058Z" fill="#F9C93A"/>
<path opacity="0.5" d="M180.314 100.058C181.064 100.058 181.672 99.451 181.672 98.7025C181.672 97.954 181.064 97.3472 180.314 97.3472C179.565 97.3472 178.957 97.954 178.957 98.7025C178.957 99.451 179.565 100.058 180.314 100.058Z" fill="#F9C93A"/>
<path d="M196.344 113.934C198.736 116.386 201.257 111.804 202.808 108.19C202.873 107.996 202.937 107.867 203.002 107.673C203.067 108.319 203.131 109.029 203.131 109.674C203.131 109.674 206.363 106.77 206.88 105.544C207.397 104.317 212.439 104.834 212.439 104.834C212.439 104.834 215.8 103.349 216.382 102.317C216.899 101.284 220.066 103.93 221.1 103.156C222.07 102.381 231.184 98.4443 231.184 98.4443L231.572 99.0252C231.572 99.0252 234.093 105.221 233.511 106.576C232.929 107.932 233.575 115.741 234.028 116.128C234.48 116.515 233.317 132.004 231.184 132.004C231.184 132.004 236.872 135.877 238.552 134.715C239.07 134.328 239.07 132.779 238.811 130.714L239.264 130.778L240.104 130.907L241.59 131.165C241.397 131.617 241.138 132.069 240.75 132.456C239.587 133.812 240.75 135.425 240.75 135.425C240.75 135.425 240.362 138.91 239.199 142.008C238.035 145.106 237.518 157.497 238.1 159.885C238.746 162.273 238.746 165.113 238.746 165.113C238.746 165.113 238.811 170.276 243.917 172.277L244.499 172.535L252.385 181.054V181.118C252.385 181.248 252.385 181.377 252.385 181.506C252.062 187.443 251.997 198.092 251.997 198.092L253.225 198.35V203.191C253.225 203.191 254.259 205.127 257.879 205.191C258.913 205.191 259.56 204.675 259.947 203.901C260.465 202.868 260.529 201.448 260.465 200.351C260.465 200.222 260.465 200.028 260.4 199.899L261.046 200.028L262.598 193.962C262.791 193.639 262.985 193.316 263.179 192.994C263.244 192.865 263.309 192.8 263.309 192.671L265.571 195.123C265.571 195.123 265.959 194.607 266.605 193.833L266.928 194.284C267.639 195.382 268.609 196.995 269.191 198.157C270.225 200.157 268.609 202.029 268.609 202.029C268.286 203.191 268.286 203.901 268.415 204.352C268.738 205.256 269.708 204.933 269.708 204.933C272.681 204.611 274.491 197.124 274.103 195.382C274.103 195.317 274.038 195.188 273.974 195.123C273.844 194.994 273.78 194.801 273.715 194.607C273.521 193.51 274.426 191.896 274.426 191.896L276.107 192.542L277.658 187.766L276.688 186.54L275.396 184.991L275.137 184.604C275.331 184.474 275.59 184.345 275.848 184.281C275.848 184.281 270.806 179.118 266.153 175.181C266.153 175.052 266.153 174.858 266.153 174.729C266.411 169.372 266.347 165.113 266.347 165.113C266.347 165.113 265.248 159.885 266.347 157.885C267.187 156.336 267.445 154.012 267.575 153.044C267.639 152.786 267.639 152.592 267.639 152.592V145.751C267.639 145.751 270.871 141.943 270.419 137.361C269.966 132.779 270.936 132.908 270.936 132.908C270.936 132.908 270.936 130.843 270.806 128.713C271.13 129.165 271.324 129.423 271.324 129.423L271.582 129.1C271.711 129.294 271.841 129.423 271.841 129.423C271.841 129.423 272.422 128.584 273.263 127.293C273.392 127.358 273.457 127.422 273.586 127.422C274.297 127.616 275.719 127.487 277.658 127.293C279.985 127.035 278.046 122.259 278.046 122.259L277.464 121.614L277.206 121.356C278.175 119.871 278.822 118.709 278.822 118.516C278.822 117.806 281.601 114.063 281.859 113.224C282.118 112.385 282.829 110.836 283.928 108.512C285.027 106.189 283.475 103.027 283.475 103.027C283.475 103.027 278.757 96.3791 278.886 95.4755C279.015 94.572 276.042 93.9912 276.042 93.9912C276.042 93.9912 275.008 92.1841 274.297 92.055C273.521 91.9259 272.616 89.7316 272.616 89.7316C273.263 88.7635 271.518 88.8281 271.518 88.8281C271.518 88.8281 269.837 88.3763 270.16 87.6664C270.483 86.9564 268.156 86.5047 268.221 85.5366C268.286 84.5685 266.864 84.3749 266.864 84.3749C266.864 84.3749 264.795 85.0848 264.989 84.3749C265.248 83.665 261.757 83.2777 261.757 83.2777C261.757 83.2777 260.077 84.1167 259.107 83.2777C258.202 82.4387 254.389 82.4387 254.389 82.4387C254.389 82.4387 255.164 79.5345 254.389 78.6309C254.195 78.4373 253.742 78.5664 253.161 78.8246C253.096 78.2437 253.031 77.6629 252.967 77.1465C252.967 77.082 252.967 77.0175 252.967 76.9529C253.484 76.4366 253.936 75.7912 254.259 75.1458C254.324 75.0168 254.389 74.8877 254.453 74.7586C254.712 74.8231 254.97 74.8232 255.294 74.8232C255.811 74.8232 256.263 74.6941 256.522 74.3068C256.522 74.2423 256.586 74.2423 256.586 74.1778C256.586 74.1778 256.586 74.1778 256.586 74.1132C256.586 74.0487 256.586 74.0487 256.651 73.9841V73.9196V73.8551V73.7905C256.651 73.7905 256.651 73.7905 256.651 73.726C256.651 73.6615 256.651 73.5969 256.651 73.5324C256.651 73.5324 256.651 73.5324 256.651 73.4678C256.651 73.4033 256.651 73.4033 256.651 73.3388C256.651 73.2742 256.651 73.2742 256.651 73.2097C256.651 73.1451 256.651 73.0161 256.586 72.9515C256.457 72.4998 256.263 72.048 256.198 71.5962C256.134 71.4026 256.134 71.2735 256.198 71.0799C256.198 71.0154 256.198 71.0154 256.263 70.9508C256.263 70.8863 256.328 70.8863 256.328 70.8217C256.586 70.4991 257.103 70.5636 257.427 70.37C257.491 70.37 257.491 70.3054 257.556 70.2409C257.556 70.2409 257.556 70.2409 257.556 70.1764L257.62 70.1118V70.0473C257.62 70.0473 257.62 69.9827 257.685 69.9827V69.9182V69.8537V69.7891V69.7246V69.6601V69.5955C257.685 69.5955 257.685 69.5955 257.685 69.531C257.685 69.4664 257.685 69.4664 257.685 69.4019V69.3374C257.685 69.2728 257.685 69.2083 257.685 69.2083C257.62 68.821 257.427 68.3693 257.491 67.982V67.9175C257.62 67.3367 258.073 66.9494 258.332 66.4331C258.396 66.3686 258.396 66.304 258.396 66.175V66.1104C258.396 66.0459 258.461 65.9813 258.461 65.9168V65.8523C258.461 65.7877 258.461 65.7232 258.461 65.5941V65.5296C258.461 65.465 258.461 65.336 258.461 65.2714C258.461 65.0133 258.331 64.7551 258.202 64.497C257.685 63.5289 256.457 63.1416 255.875 62.1736C255.617 61.6572 255.487 61.0764 255.552 60.5601C255.552 60.3665 255.617 60.1729 255.617 59.9792C255.617 59.8502 255.681 59.7856 255.681 59.7211V59.6565C255.681 59.592 255.746 59.4629 255.746 59.3984C255.746 59.3339 255.811 59.2693 255.811 59.2048V59.1402V59.0757C255.875 58.9466 255.875 58.8175 255.875 58.6885C255.875 58.5594 255.875 58.4303 255.875 58.2367C255.875 58.1076 255.811 57.914 255.681 57.8495C255.487 57.5913 255.164 57.4622 254.841 57.3977C253.548 57.075 252.126 57.4622 250.769 57.2041C249.929 57.0105 249.088 56.5587 248.248 56.4941C246.826 56.3005 245.469 57.2041 244.564 58.3012C243.982 59.0757 243.53 60.0438 242.689 60.5601C241.978 61.0119 241.073 61.1409 240.298 61.4636C239.393 61.8509 238.617 62.6899 238.682 63.6579C238.682 63.7225 238.682 63.8516 238.746 63.9161V63.9806C238.746 64.0452 238.811 64.1097 238.811 64.1743C238.94 64.6906 239.263 65.1423 239.328 65.6586C239.328 65.7232 239.328 65.7877 239.328 65.7877C239.328 66.4331 239.005 67.014 238.746 67.5948C238.617 67.9175 238.552 68.2402 238.488 68.6274V68.692C238.488 68.7565 238.488 68.7565 238.488 68.821C238.488 68.8856 238.488 68.8856 238.488 68.9501V69.0147C238.488 69.0792 238.552 69.1437 238.552 69.2083C238.552 69.2083 238.552 69.2083 238.552 69.2728C238.552 69.3374 238.617 69.4019 238.682 69.4664C238.94 69.7246 239.328 69.9182 239.716 69.9182H239.91C240.233 69.9182 240.556 69.7891 240.815 69.6601C240.75 69.8537 240.686 69.9827 240.686 70.1764C240.039 72.7579 240.944 75.4685 242.948 77.2756C242.948 77.3402 242.948 77.4692 242.948 77.5338C243.012 78.6309 243.012 79.6636 242.883 80.7607H242.819L242.56 81.0834C242.754 79.599 242.883 78.5019 242.883 78.5019C242.883 78.5019 238.876 81.8579 237.389 81.9224C237.389 81.9224 237.777 83.794 239.522 84.5685C239.522 84.5685 235.385 85.0848 233.834 84.8912C232.283 84.633 229.568 85.0203 229.051 85.7947C228.534 86.5692 227.37 87.5373 226.401 87.7309C225.496 87.86 224.462 88.8281 224.462 88.8281C224.462 88.8281 223.298 90.377 222.199 90.377C221.1 90.377 220.26 91.7323 220.26 91.7323C220.26 91.7323 218.709 92.5713 217.739 92.3777C216.77 92.1195 212.568 91.7968 211.987 92.4422C211.34 93.0876 207.333 93.733 207.333 93.733C207.333 93.733 205.781 96.1209 204.424 96.1209C203.067 96.1209 195.31 101.736 195.116 103.737C195.633 103.414 196.215 103.156 196.797 102.962L196.732 103.156C195.698 105.931 193.694 111.094 196.344 113.934ZM267.316 101.671L270.936 103.543C270.936 103.543 272.229 106.06 273.263 106.447C274.297 106.834 274.168 108.19 274.168 108.19C274.168 108.19 271.453 110.126 272.487 110.965C273.521 111.804 272.487 112.256 272.487 112.256L270.483 114.45L270.225 114.192L268.286 112.191L267.316 101.865V101.671ZM254.453 154.722C254.453 154.722 254.453 154.916 254.518 155.174C254.712 156.336 255.229 159.304 255.423 160.789C255.617 162.015 255.552 163.241 255.294 164.403C255.294 164.403 255.229 164.984 255.035 165.952C255.035 166.081 254.97 166.21 254.97 166.339C254.841 166.21 254.776 166.016 254.712 165.823C254.389 164.338 252.708 163.564 252.708 163.564C252.708 163.564 254.001 158.659 253.484 157.368C253.161 156.594 253.161 155.755 253.29 154.98C253.419 154.528 253.742 154.27 254.13 154.464C254.324 154.593 254.389 154.658 254.453 154.722Z" fill="url(#paint2_linear)"/>
<path d="M243.917 81.148C243.982 81.2125 244.047 82.826 244.047 82.826H242.366L241.849 82.1806L243.271 79.2118L243.788 79.5345C243.723 79.5345 243.853 81.0834 243.917 81.148Z" fill="#464353"/>
<path d="M260.4 199.06C260.465 199.577 260.529 200.157 260.594 200.674C260.658 201.771 260.594 203.191 260.077 204.223C259.753 205.062 258.913 205.579 258.008 205.514C254.453 205.45 253.354 203.513 253.354 203.513V197.189L260.4 199.06Z" fill="#3F3D56"/>
<path opacity="0.1" d="M260.4 199.06C260.464 199.577 260.529 200.157 260.594 200.674L253.419 199.06V197.124L260.4 199.06Z" fill="black"/>
<path d="M252.579 181.828C252.579 181.506 252.643 181.248 252.643 180.989C252.708 179.634 252.837 178.601 252.967 178.15C253.419 176.665 254.453 170.405 254.97 167.049C255.035 166.791 255.035 166.533 255.1 166.339C255.229 165.436 255.358 164.855 255.358 164.855C255.617 163.693 255.681 162.467 255.487 161.241C255.229 159.756 254.776 156.723 254.582 155.626L254.518 155.174L255.164 154.593L259.495 150.914H266.928L267.639 152.721L267.833 153.173C267.833 153.173 267.833 153.367 267.768 153.625C267.704 154.593 267.381 156.916 266.54 158.465C265.442 160.466 266.54 165.694 266.54 165.694C266.54 165.694 266.605 169.953 266.346 175.31C266.346 175.633 266.346 175.891 266.282 176.214C265.959 182.087 265.248 188.992 263.567 192.865C263.502 193.058 263.373 193.316 263.309 193.51C263.115 193.833 262.921 194.155 262.727 194.478L261.175 200.545L252.191 198.544C252.191 198.35 252.256 187.701 252.579 181.828Z" fill="#514E7F"/>
<path opacity="0.1" d="M260.077 204.223C259.753 205.062 258.913 205.579 258.008 205.514C254.453 205.45 253.354 203.513 253.354 203.513V203.384C255.875 204.869 258.461 204.611 260.077 204.223Z" fill="black"/>
<path d="M197.055 103.737C197.572 102.768 197.96 102.123 197.96 102.123L204.295 104.769C204.295 104.769 203.778 106.512 202.873 108.512C201.321 112.127 198.801 116.709 196.409 114.256C193.694 111.546 195.698 106.383 197.055 103.737Z" fill="#A1616A"/>
<path d="M242.301 74.1132C240.427 69.9828 252.773 74.8877 252.773 74.8877C252.773 74.8877 252.837 76.1785 253.031 77.8565C253.29 80.2444 253.742 83.3423 254.389 84.504C255.552 86.5047 242.689 85.1493 242.689 85.1493C243.142 82.8905 243.271 80.6316 243.206 78.3082C243.077 76.8239 242.883 75.3395 242.301 74.1132Z" fill="#A1616A"/>
<path d="M236.807 109.093L237.26 113.675L235.902 130.649L243.853 131.94L242.108 111.352L236.807 109.093Z" fill="#464353"/>
<path opacity="0.1" d="M237.26 113.675L236.807 109.158L239.005 110.061L240.298 110.578L242.108 111.352L243.53 128.197L243.853 132.004L239.328 131.23L235.902 130.714L237.26 113.675Z" fill="black"/>
<path d="M267.057 194.543C266.54 193.768 266.153 193.187 266.153 193.187L274.749 184.216L275.59 185.249L276.882 186.798L277.852 188.024L276.301 192.8L274.62 192.155C274.62 192.155 273.327 194.413 274.103 195.382C274.943 196.35 273.004 204.804 269.837 205.191C269.837 205.191 268.867 205.514 268.544 204.611C268.415 204.159 268.415 203.449 268.738 202.287C268.738 202.287 270.289 200.416 269.32 198.415C268.738 197.253 267.769 195.704 267.057 194.543Z" fill="#3F3D56"/>
<path opacity="0.1" d="M252.902 178.15C253.354 176.665 254.389 170.405 254.906 167.049C255.94 168.792 260.917 172.341 260.917 172.341C262.404 173.051 264.278 174.471 266.282 176.149C265.959 182.345 265.118 189.702 263.244 193.381L252.514 181.893C252.643 179.957 252.773 178.601 252.902 178.15Z" fill="black"/>
<path opacity="0.1" d="M259.495 150.785H266.928L267.639 152.592L255.164 154.464L259.495 150.785Z" fill="black"/>
<path opacity="0.1" d="M252.902 178.15C253.354 176.665 254.389 170.405 254.906 167.049C254.97 166.791 254.97 166.533 255.035 166.339C256.263 168.082 260.917 171.438 260.917 171.438C262.404 172.148 264.343 173.567 266.346 175.245C266.346 175.568 266.346 175.826 266.282 176.149C265.959 182.022 265.248 188.928 263.502 192.8L252.514 181.054C252.708 179.57 252.837 178.537 252.902 178.15Z" fill="black"/>
<path opacity="0.1" d="M274.749 184.281L275.59 185.313C273.198 186.927 268.803 192.219 266.993 194.543C266.476 193.768 266.088 193.187 266.088 193.187L274.749 184.281Z" fill="black"/>
<path d="M239.328 142.395C240.492 139.297 240.879 135.877 240.879 135.877C240.879 135.877 239.716 134.263 240.879 132.908C242.043 131.553 242.754 128.584 242.754 128.584L243.594 124.776L263.438 121.227C263.438 121.227 269.772 124.195 270.419 124.841C271.065 125.486 271.13 133.295 271.13 133.295C271.13 133.295 270.095 133.166 270.613 137.748C271.13 142.331 267.833 146.138 267.833 146.138V153.044L254.518 155.045C254.453 154.98 254.389 154.916 254.259 154.851C253.807 154.593 253.548 154.916 253.419 155.368C253.225 156.142 253.29 156.981 253.613 157.755C254.13 158.982 252.837 163.887 252.837 163.887C252.837 163.887 254.518 164.661 254.841 166.145C255.164 167.63 260.982 171.825 260.982 171.825C265.829 174.148 276.107 184.668 276.107 184.668C273.586 185.314 265.765 195.446 265.765 195.446L244.758 172.922L244.176 172.664C239.07 170.663 239.005 165.5 239.005 165.5C239.005 165.5 239.005 162.66 238.359 160.272C237.648 157.885 238.229 145.493 239.328 142.395Z" fill="#514E7F"/>
<path opacity="0.1" d="M252.773 74.8877C252.773 74.8877 252.837 76.1785 253.031 77.8565C250.381 80.5671 246.05 80.7607 243.206 78.3082C243.142 76.8239 242.883 75.3395 242.301 74.1132C240.427 69.9182 252.773 74.8877 252.773 74.8877Z" fill="black"/>
<path d="M240.944 70.9509C241.72 67.7239 244.628 65.4651 247.925 65.4651C251.868 65.4651 255.1 68.692 255.1 72.6289C255.1 76.5657 251.868 79.7927 247.925 79.7927C243.982 79.7927 240.75 76.5657 240.75 72.6289C240.75 72.1125 240.815 71.5317 240.944 70.9509Z" fill="#A1616A"/>
<path opacity="0.1" d="M243.142 82.3742L239.134 87.6018C239.134 87.6018 236.872 105.608 238.035 107.351C239.199 109.093 242.754 128.971 242.754 128.971C242.754 128.971 243.077 128.068 246.503 128.971C249.929 129.875 266.023 123.034 266.023 123.034L263.05 109.416C263.05 109.416 252.385 82.0515 252.062 82.3096C251.738 82.6323 246.567 85.0203 246.567 85.0203L243.142 82.3742Z" fill="black"/>
<path opacity="0.1" d="M243.142 81.4706L239.134 86.6983C239.134 86.6983 236.872 104.705 238.035 106.447C239.199 108.19 242.754 128.068 242.754 128.068C242.754 128.068 243.077 127.164 246.503 128.068C249.929 128.971 266.023 122.13 266.023 122.13L263.05 108.512C263.05 108.512 252.385 81.148 252.062 81.4061C251.738 81.7288 246.567 84.1167 246.567 84.1167L243.142 81.4706Z" fill="black"/>
<path d="M239.134 87.1501L243.142 81.9224L243.336 82.0515L246.567 84.6331C246.567 84.6331 247.343 84.2458 248.313 83.7941C249.864 83.0841 251.868 82.1161 251.997 81.9224C252.32 81.5997 262.985 109.029 262.985 109.029L265.506 120.581L265.959 122.646C265.959 122.646 249.929 129.487 246.438 128.584C244.887 128.197 243.982 128.132 243.465 128.197C242.819 128.326 242.689 128.584 242.689 128.584C242.689 128.584 241.203 120.194 239.845 113.869C239.522 112.449 239.263 111.158 239.005 110.061C238.617 108.512 238.294 107.351 238.035 106.963C236.936 105.156 239.134 87.1501 239.134 87.1501Z" fill="#F9C93A"/>
<path opacity="0.1" d="M248.313 83.7941C249.864 83.0841 251.868 82.1161 251.997 81.9224C252.32 81.5997 262.985 109.029 262.985 109.029L265.506 120.581C265.377 120.452 265.183 120.258 265.054 120.129C263.761 118.839 262.856 117.935 262.856 117.935C262.856 117.935 256.651 109.48 255.617 105.285C254.518 101.09 250.834 91.9905 250.834 91.9905C250.834 91.9905 249.735 89.0862 250.187 87.2792C250.64 86.182 249.282 84.6976 248.313 83.7941Z" fill="black"/>
<path d="M247.86 83.0841C247.86 83.0841 253.678 78.4373 254.453 79.3409C255.229 80.2444 254.453 83.0841 254.453 83.0841C254.453 83.0841 258.267 83.0841 259.172 83.9231C260.077 84.7621 261.822 83.9231 261.822 83.9231C261.822 83.9231 265.312 84.3104 265.054 85.0203C264.795 85.7302 266.928 85.0203 266.928 85.0203C266.928 85.0203 268.415 85.1494 268.286 86.182C268.221 87.1501 270.548 87.6664 270.225 88.3118C269.902 88.9571 271.582 89.4735 271.582 89.4735C271.582 89.4735 273.263 89.4089 272.681 90.377C272.681 90.377 272.681 90.377 272.681 90.4415C272.616 90.5061 272.552 90.6997 272.422 90.8933C271.582 92.5713 269.255 97.799 268.092 100.51C267.639 101.478 267.381 102.188 267.381 102.188V102.446L268.35 112.772L270.289 114.773L270.742 115.289L277.012 121.743L277.593 122.324L278.175 122.969C278.175 122.969 280.114 127.745 277.787 127.939C275.848 128.132 274.426 128.261 273.715 128.068C273.586 128.068 273.521 128.003 273.392 127.939C273.327 127.874 273.263 127.809 273.069 127.68C271.97 126.648 268.479 123.227 266.023 120.775C265.894 120.646 265.7 120.452 265.571 120.323C264.278 119.032 263.373 118.129 263.373 118.129C263.373 118.129 257.168 109.674 256.134 105.479C255.035 101.284 251.351 92.1841 251.351 92.1841C251.351 92.1841 250.252 89.2798 250.704 87.4728C251.221 85.5366 247.86 83.0841 247.86 83.0841Z" fill="#464353"/>
<path opacity="0.1" d="M265.183 122.259C265.183 122.259 254.712 129.875 259.172 132.779C263.632 135.683 270.031 126.712 270.031 126.712L265.183 122.259Z" fill="black"/>
<path d="M265.183 121.807C265.183 121.807 254.712 129.423 259.172 132.327C263.632 135.231 270.031 126.261 270.031 126.261L265.183 121.807Z" fill="#A1616A"/>
<path opacity="0.1" d="M235.902 130.649L237.26 113.675L236.807 109.158L239.005 110.061C238.617 108.512 238.294 107.351 238.035 106.963C236.872 105.221 239.134 87.2146 239.134 87.2146L243.142 81.987L243.336 82.116C243.012 84.8912 242.625 88.8281 242.948 90.4415C243.465 92.9586 240.685 105.35 240.685 105.35C240.685 105.35 240.621 107.802 240.298 110.642C240.168 111.739 240.039 112.836 239.91 113.934C239.587 115.934 239.199 117.741 238.617 118.71C237.454 120.646 238.876 127.035 239.393 131.295L235.902 130.649Z" fill="black"/>
<path d="M242.431 90.4415C242.948 92.9585 240.168 105.35 240.168 105.35C240.168 105.35 239.781 115.87 238.1 118.709C236.419 121.549 240.233 134.005 238.552 135.167C236.872 136.329 231.184 132.456 231.184 132.456C233.252 132.456 234.416 116.967 234.028 116.58C233.575 116.192 232.994 108.448 233.511 107.028C234.028 105.673 231.572 99.477 231.572 99.477L224.785 89.4734C224.785 89.4734 225.819 88.5699 226.724 88.3763C227.629 88.1827 228.792 87.2146 229.374 86.4401C229.891 85.6657 232.606 85.2784 234.157 85.5366C235.708 85.7947 239.845 85.2139 239.845 85.2139C238.165 84.4394 237.712 82.5678 237.712 82.5678C239.199 82.5033 243.206 79.1472 243.206 79.1472C243.206 79.1472 241.914 87.86 242.431 90.4415Z" fill="#464353"/>
<path opacity="0.1" d="M197.896 102.188L204.23 104.834C204.23 104.834 203.713 106.576 202.808 108.577C202.226 103.091 199.059 103.091 196.991 103.737C197.508 102.768 197.896 102.188 197.896 102.188Z" fill="black"/>
<path d="M234.028 93.6685L231.184 98.9607C231.184 98.9607 222.07 102.898 221.1 103.672C220.131 104.446 216.964 101.865 216.382 102.833C215.8 103.801 212.439 105.35 212.439 105.35C212.439 105.35 207.462 104.834 206.88 106.06C206.298 107.286 203.131 110.19 203.131 110.19C203.067 99.5415 195.439 104.382 195.439 104.382C195.698 102.381 203.39 96.7663 204.747 96.7663C206.105 96.7663 207.656 94.3784 207.656 94.3784C207.656 94.3784 211.663 93.733 212.31 93.0876C212.956 92.4422 217.093 92.8295 218.062 93.0231C219.032 93.2812 220.583 92.3777 220.583 92.3777C220.583 92.3777 221.424 91.0224 222.522 91.0224C223.621 91.0224 224.785 89.4735 224.785 89.4735L228.534 89.0217L234.028 93.6685Z" fill="#464353"/>
<path d="M245.986 98.3798C246.343 98.3798 246.632 98.0908 246.632 97.7344C246.632 97.378 246.343 97.089 245.986 97.089C245.629 97.089 245.339 97.378 245.339 97.7344C245.339 98.0908 245.629 98.3798 245.986 98.3798Z" fill="#3F3D56"/>
<path d="M246.632 111.997C246.989 111.997 247.279 111.709 247.279 111.352C247.279 110.996 246.989 110.707 246.632 110.707C246.275 110.707 245.986 110.996 245.986 111.352C245.986 111.709 246.275 111.997 246.632 111.997Z" fill="#3F3D56"/>
<path d="M245.986 104.834C246.343 104.834 246.632 104.545 246.632 104.188C246.632 103.832 246.343 103.543 245.986 103.543C245.629 103.543 245.339 103.832 245.339 104.188C245.339 104.545 245.629 104.834 245.986 104.834Z" fill="#3F3D56"/>
<path d="M247.86 119.161C248.217 119.161 248.507 118.872 248.507 118.516C248.507 118.159 248.217 117.87 247.86 117.87C247.503 117.87 247.214 118.159 247.214 118.516C247.214 118.872 247.503 119.161 247.86 119.161Z" fill="#3F3D56"/>
<path opacity="0.1" d="M273.327 195.769C273.263 194.349 273.586 192.929 274.168 191.638C274.491 190.993 275.913 188.605 276.882 186.862L277.852 188.089L276.301 192.865L274.62 192.219C274.62 192.219 273.327 194.478 274.103 195.446C274.943 196.414 273.004 204.869 269.837 205.256C269.837 205.256 268.867 205.579 268.544 204.675C271.647 204.482 273.392 197.318 273.327 195.769Z" fill="black"/>
<path opacity="0.1" d="M240.944 70.9508C241.073 70.4345 241.267 69.9182 241.461 69.4664C243.206 65.9168 247.537 64.497 251.027 66.2395C254.582 67.982 256.005 72.3061 254.259 75.7912C254.13 75.7267 253.936 75.6622 253.807 75.5976C253.354 75.2749 253.419 74.565 253.29 73.9842C253.031 72.6934 251.674 71.9189 251.415 70.6281C251.221 69.7891 251.545 68.692 250.704 68.1757C249.67 67.4657 248.313 68.1757 247.343 68.4984C246.697 68.7565 245.986 68.9501 245.275 68.7565C244.693 68.6274 244.047 68.2402 243.53 68.4984C243.077 68.7565 242.948 69.3374 242.689 69.7891C242.366 70.2409 241.784 70.4991 241.267 70.6927C241.267 70.8218 241.073 70.8863 240.944 70.9508Z" fill="black"/>
<path d="M250.834 67.7239C251.609 68.2402 251.286 69.4019 251.545 70.1764C251.868 71.4026 253.225 72.2416 253.419 73.5324C253.548 74.1132 253.484 74.7586 253.936 75.1459C254.13 75.2749 254.324 75.3395 254.518 75.404C255.229 75.5976 256.134 75.5976 256.586 75.0168C256.845 74.6295 256.909 74.1132 256.78 73.6615C256.651 73.2097 256.457 72.8225 256.392 72.3061C256.328 72.048 256.328 71.7253 256.522 71.5317C256.78 71.2735 257.233 71.2735 257.62 71.0799C257.944 70.8218 258.008 70.3054 257.879 69.9182C257.814 69.531 257.62 69.0792 257.685 68.692C257.75 68.1111 258.267 67.6594 258.525 67.1431C258.784 66.5622 258.784 65.8523 258.461 65.2714C257.944 64.3033 256.716 63.9161 256.134 63.0126C255.617 62.1736 255.746 61.1409 256.005 60.1729C256.134 59.6566 256.328 59.0757 256.005 58.6239C255.811 58.3658 255.487 58.2367 255.164 58.1722C253.871 57.8495 252.449 58.2367 251.092 57.9785C250.252 57.7849 249.412 57.3332 248.571 57.2686C247.149 57.075 245.792 57.9786 244.887 59.0757C244.305 59.8502 243.853 60.8183 243.012 61.3346C242.301 61.7863 241.397 61.9154 240.621 62.2381C239.716 62.6253 238.94 63.4643 239.005 64.4324C239.07 65.2069 239.587 65.8523 239.651 66.6267C239.651 67.2721 239.328 67.853 239.07 68.4338C238.811 69.0147 238.682 69.7891 239.134 70.2409C239.457 70.5636 239.845 70.7572 240.298 70.6927C240.75 70.6281 241.138 70.4991 241.526 70.37C242.043 70.1764 242.625 69.9182 242.948 69.4664C243.271 69.0147 243.336 68.4338 243.788 68.1757C244.305 67.9175 244.952 68.2402 245.533 68.4338C246.244 68.6274 246.955 68.4338 247.602 68.1757C248.377 67.7239 249.799 67.0785 250.834 67.7239Z" fill="#464353"/>
<path opacity="0.1" d="M241.073 157.949C241.332 156.207 248.571 151.56 248.571 151.56L241.073 157.949Z" fill="black"/>
<path opacity="0.1" d="M241.073 160.66C240.621 159.304 248.959 155.303 248.959 155.303L241.073 160.66Z" fill="black"/>
<path opacity="0.1" d="M244.434 162.725C244.758 161.241 249.411 158.788 249.411 158.788L244.434 162.725Z" fill="black"/>
<path opacity="0.1" d="M243.788 166.339C244.434 167.049 247.472 164.338 247.472 164.338C247.472 164.338 243.142 165.629 243.788 166.339Z" fill="black"/>
<path opacity="0.1" d="M250.51 170.147C249.347 169.889 251.738 166.081 251.738 166.081C251.738 166.081 251.674 170.341 250.51 170.147Z" fill="black"/>
<path opacity="0.1" d="M265.183 100.768C266.411 100.122 262.339 97.6699 262.339 97.6699C262.339 97.6699 263.955 101.413 265.183 100.768Z" fill="black"/>
<path opacity="0.1" d="M264.537 95.7337C266.476 96.25 262.274 88.6345 262.274 88.6345C262.274 88.6345 262.662 95.1529 264.537 95.7337Z" fill="black"/>
<path opacity="0.1" d="M220.196 100.897C220.648 99.2833 218.127 96.25 218.127 96.25L220.196 100.897Z" fill="black"/>
<path opacity="0.1" d="M214.701 101.478C215.283 101.09 211.469 97.7344 211.469 97.7344L214.701 101.478Z" fill="black"/>
<path opacity="0.1" d="M208.884 104.188C209.53 104.124 209.143 101.865 209.143 101.865L208.884 104.188Z" fill="black"/>
<path opacity="0.05" d="M249.735 146.332C250.381 145.041 252.837 144.525 252.837 144.525C252.837 144.525 255.358 147.3 255.164 148.333C254.97 149.043 254.518 152.721 254.195 154.851C253.742 154.593 253.484 154.916 253.354 155.368C252.902 154.658 252.385 153.754 252.126 153.302C251.674 152.399 251.674 150.14 250.704 148.849C249.735 147.558 249.088 147.623 249.735 146.332Z" fill="black"/>
<path opacity="0.1" d="M265.635 120.129C266.217 119.549 266.67 118.968 266.67 118.774C266.67 118.322 269.061 115.934 269.061 115.934L270.289 114.579L277.076 121.549C275.913 123.356 274.361 125.744 273.133 127.487C272.164 128.842 271.517 129.875 271.517 129.875C271.517 129.875 266.346 122.517 263.567 122.13C263.567 122.13 264.731 121.033 265.635 120.129Z" fill="black"/>
<path opacity="0.1" d="M268.092 100.445L269.643 90.6351L272.616 90.4415C272.552 90.5061 272.487 90.6997 272.358 90.8933C271.582 92.5713 269.255 97.7344 268.092 100.445Z" fill="black"/>
<path opacity="0.1" d="M267.575 118.839C267.575 118.387 269.966 115.999 269.966 115.999L270.742 115.16L277.012 121.614L277.593 122.195C276.365 124.066 274.814 126.39 273.78 127.939C273.651 127.939 273.586 127.874 273.457 127.809C273.392 127.745 273.327 127.68 273.133 127.551C272.035 126.519 268.544 123.098 266.088 120.646C266.799 119.807 267.575 119.032 267.575 118.839Z" fill="black"/>
<path d="M267.316 102.123L270.936 103.995C270.936 103.995 272.228 106.512 273.263 106.899C274.297 107.286 274.168 108.641 274.168 108.641C274.168 108.641 271.453 110.578 272.487 111.417C273.521 112.256 272.487 112.707 272.487 112.707L269.514 115.934C269.514 115.934 267.122 118.322 267.122 118.774C267.122 119.226 264.02 122.066 264.02 122.066C266.799 122.453 271.97 129.81 271.97 129.81C271.97 129.81 279.015 119.678 278.951 118.968C278.951 118.258 281.666 114.579 281.924 113.74C282.183 112.901 282.894 111.352 283.992 109.029C285.091 106.705 283.54 103.543 283.54 103.543C283.54 103.543 278.822 96.96 278.951 95.9919C279.08 95.0883 276.107 94.5075 276.107 94.5075C276.107 94.5075 275.073 92.7649 274.362 92.5713C273.586 92.4422 272.681 90.2479 272.681 90.2479L269.191 90.5061L267.316 102.123Z" fill="#464353"/>
<path opacity="0.1" d="M278.175 105.673C278.24 105.156 282.441 105.995 282.441 105.995C282.441 105.995 278.11 106.189 278.175 105.673Z" fill="black"/>
<path opacity="0.1" d="M275.59 111.352C275.46 110.578 278.951 110.126 278.951 110.126C278.951 110.126 275.719 112.127 275.59 111.352Z" fill="black"/>
<path opacity="0.1" d="M272.228 100.897C272.681 101.865 276.107 97.089 276.107 97.089L272.228 100.897Z" fill="black"/>
<g opacity="0.1">
<path opacity="0.1" d="M255.875 60.1729C256.005 59.7856 256.069 59.3984 256.005 59.0112C255.94 59.2693 255.94 59.4629 255.875 59.7211C255.746 60.2374 255.617 60.8183 255.681 61.3991C255.681 60.9473 255.746 60.5601 255.875 60.1729Z" fill="black"/>
<path opacity="0.1" d="M239.457 66.1104C239.457 65.4005 238.94 64.7551 238.811 64.0452C238.811 64.1743 238.811 64.3033 238.811 64.3679C238.876 65.0778 239.328 65.7232 239.393 66.3686C239.457 66.304 239.457 66.2395 239.457 66.1104Z" fill="black"/>
<path opacity="0.1" d="M238.682 69.1438C238.617 69.531 238.682 69.9182 238.94 70.1764C239.264 70.4991 239.651 70.6927 240.104 70.6281C240.556 70.5636 240.944 70.4345 241.332 70.3055C241.849 70.1118 242.431 69.8537 242.754 69.4019C243.077 68.9501 243.142 68.3693 243.594 68.1111C244.111 67.853 244.758 68.1757 245.339 68.3693C246.05 68.5629 246.761 68.3693 247.408 68.1111C248.377 67.7239 249.799 67.0785 250.769 67.7884C251.545 68.3048 251.221 69.4664 251.48 70.2409C251.803 71.4671 253.16 72.3062 253.354 73.5969C253.484 74.1778 253.419 74.8232 253.872 75.2104C254.065 75.3395 254.259 75.404 254.453 75.4685C255.164 75.6622 256.069 75.6622 256.522 75.0813C256.716 74.7586 256.78 74.3714 256.78 74.0487C256.78 74.2423 256.651 74.4359 256.522 74.6295C256.069 75.2104 255.164 75.2104 254.453 75.0168C254.259 74.9522 254.065 74.8877 253.872 74.7586C253.419 74.4359 253.484 73.726 253.354 73.1452C253.096 71.8544 251.738 71.0799 251.48 69.7891C251.286 68.9501 251.609 67.853 250.769 67.3367C249.735 66.6267 248.377 67.3367 247.408 67.6594C246.761 67.9175 246.05 68.1111 245.339 67.9175C244.758 67.7884 244.111 67.4012 243.594 67.6594C243.142 67.9175 243.012 68.4984 242.754 68.9501C242.431 69.4019 241.849 69.6601 241.332 69.8537C240.944 70.0473 240.492 70.1764 240.104 70.1764C239.651 70.2409 239.199 70.0473 238.94 69.7246C238.811 69.5955 238.746 69.4019 238.682 69.1438Z" fill="black"/>
<path opacity="0.1" d="M257.62 68.6274C257.75 68.0466 258.202 67.6594 258.461 67.143C258.655 66.8204 258.655 66.4331 258.655 66.0459C258.655 66.2395 258.59 66.4977 258.461 66.6913C258.202 67.2076 257.685 67.6594 257.62 68.2402C257.556 68.3047 257.556 68.4984 257.62 68.6274Z" fill="black"/>
<path opacity="0.1" d="M256.457 71.5317C256.716 71.2735 257.233 71.2735 257.556 71.0799C257.879 70.8863 257.879 70.4345 257.879 70.0473C257.879 70.2409 257.75 70.4345 257.556 70.6281C257.233 70.8863 256.716 70.8218 256.457 71.0799C256.328 71.2735 256.263 71.5317 256.328 71.7898C256.328 71.7253 256.392 71.5962 256.457 71.5317Z" fill="black"/>
</g>
<defs>
<linearGradient id="paint0_linear" x1="143.465" y1="133.014" x2="143.465" y2="62.7162" gradientUnits="userSpaceOnUse">
<stop stop-color="#808080" stop-opacity="0.25"/>
<stop offset="0.54" stop-color="#808080" stop-opacity="0.12"/>
<stop offset="1" stop-color="#808080" stop-opacity="0.1"/>
</linearGradient>
<linearGradient id="paint1_linear" x1="67.0064" y1="104.362" x2="23.2204" y2="104.362" gradientUnits="userSpaceOnUse">
<stop stop-color="#808080" stop-opacity="0.25"/>
<stop offset="0.54" stop-color="#808080" stop-opacity="0.12"/>
<stop offset="1" stop-color="#808080" stop-opacity="0.1"/>
</linearGradient>
<linearGradient id="paint2_linear" x1="239.744" y1="205.263" x2="239.744" y2="56.6219" gradientUnits="userSpaceOnUse">
<stop stop-color="#808080" stop-opacity="0.25"/>
<stop offset="0.54" stop-color="#808080" stop-opacity="0.12"/>
<stop offset="1" stop-color="#808080" stop-opacity="0.1"/>
</linearGradient>
</defs>
</svg>
