<svg width="319" height="191" viewBox="0 0 319 191" fill="none" xmlns="http://www.w3.org/2000/svg">
<g clip-path="url(#clip0)">
<path d="M156.535 9.67291C156.535 9.67291 242.453 -15.5557 258.713 15.4801C274.973 46.5159 308.697 15.0805 306.289 50.7203C303.881 86.36 343.828 107.584 293.24 119.798C242.653 132.011 289.426 150.833 237.434 161.245C185.443 171.656 239.442 202.492 144.691 186.473C49.9394 170.455 -30.5571 170.055 11.397 124.803C53.3511 79.5517 42.9132 87.9605 54.5575 59.7307C66.2017 31.5009 51.5463 32.4974 104.541 23.8888C157.536 15.2803 160.147 57.9281 170.988 39.5055C181.829 21.0851 131.642 21.2849 156.535 9.67291Z" fill="#F9F9F9"/>
<path d="M233.962 85.0215C233.967 84.8961 233.972 84.7707 233.972 84.6429C233.972 80.0576 230.246 76.341 225.648 76.341C224.258 76.341 222.947 76.6824 221.794 77.2864C219.831 74.3387 216.47 72.3944 212.656 72.3944C206.601 72.3944 201.694 77.291 201.694 83.3282C201.694 83.3607 201.694 83.3932 201.696 83.4257C201.177 83.2956 200.632 83.226 200.071 83.226C196.37 83.226 193.371 86.2178 193.371 89.9088C193.371 93.5999 196.37 96.5917 200.071 96.5917C200.243 96.5917 200.411 96.5824 200.578 96.5708C200.595 101.114 204.291 104.794 208.85 104.794C212.153 104.794 215.003 102.863 216.328 100.071C217.509 100.571 218.806 100.845 220.166 100.845C223.55 100.845 226.533 99.1422 228.306 96.5499C229.437 97.4628 230.879 98.0087 232.449 98.0087C236.093 98.0087 239.046 95.0633 239.046 91.428C239.046 88.3107 236.876 85.7021 233.962 85.0215Z" fill="url(#paint0_linear)"/>
<path d="M274.843 65.3701C274.852 65.1889 274.857 65.0054 274.857 64.8219C274.857 58.1832 269.461 52.8011 262.805 52.8011C260.791 52.8011 258.893 53.2958 257.223 54.1692C254.379 49.8998 249.514 47.0845 243.99 47.0845C235.225 47.0845 228.117 54.1739 228.117 62.9172C228.117 62.9636 228.119 63.0124 228.119 63.0589C227.365 62.8707 226.578 62.7708 225.765 62.7708C220.408 62.7708 216.065 67.103 216.065 72.4456C216.065 77.7881 220.408 82.1203 225.765 82.1203C226.012 82.1203 226.259 82.1087 226.501 82.0901C226.524 88.6684 231.878 93.9948 238.478 93.9948C243.261 93.9948 247.388 91.198 249.307 87.1563C251.014 87.8787 252.893 88.2782 254.866 88.2782C259.766 88.2782 264.086 85.8136 266.652 82.0599C268.292 83.3816 270.378 84.1737 272.649 84.1737C277.926 84.1737 282.202 79.9066 282.202 74.6453C282.204 70.132 279.063 66.3573 274.843 65.3701Z" fill="url(#paint1_linear)"/>
<path d="M127.164 135.804C127.176 135.569 127.183 135.335 127.183 135.098C127.183 126.543 120.229 119.607 111.652 119.607C109.055 119.607 106.61 120.245 104.458 121.37C100.795 115.867 94.5253 112.239 87.406 112.239C76.1088 112.239 66.9495 121.374 66.9495 132.643C66.9495 132.703 66.9518 132.763 66.9518 132.826C65.9807 132.585 64.9653 132.454 63.9197 132.454C57.0147 132.454 51.4185 138.036 51.4185 144.924C51.4185 151.811 57.0147 157.393 63.9197 157.393C64.2387 157.393 64.5555 157.377 64.8675 157.353C64.8978 165.832 71.7958 172.696 80.3031 172.696C86.4675 172.696 91.7843 169.093 94.2598 163.883C96.4606 164.814 98.8826 165.328 101.423 165.328C107.737 165.328 113.305 162.15 116.612 157.314C118.724 159.016 121.414 160.039 124.341 160.039C131.142 160.039 136.654 154.54 136.654 147.758C136.652 141.943 132.602 137.077 127.164 135.804Z" fill="url(#paint2_linear)"/>
<path d="M206.449 60.5711C206.449 60.5711 192.777 45.9115 189.283 38.9429C185.79 31.9743 197.434 35.2263 202.558 41.7303C207.681 48.2343 206.449 60.5711 206.449 60.5711Z" fill="url(#paint3_linear)"/>
<path d="M244.663 61.2679C244.663 61.2679 258.336 46.6083 261.829 39.6397C265.323 32.6711 253.678 35.9231 248.555 42.4272C243.431 48.9312 244.663 61.2679 244.663 61.2679Z" fill="url(#paint4_linear)"/>
<path d="M211.363 80.2899C212.761 68.9078 197.157 45.6792 198.089 29.4191C198.089 29.4098 198.091 29.4005 198.091 29.3912C198.091 29.361 198.089 29.3308 198.089 29.303C198.089 19.3611 206.17 11.3008 216.137 11.3008C219.498 11.3008 222.642 12.2206 225.336 13.8164C228.031 12.2206 231.175 11.3008 234.535 11.3008C244.503 11.3008 252.584 19.3611 252.584 29.303C252.584 29.3425 252.581 29.3796 252.581 29.4191H252.584C252.584 29.4191 254.68 54.7383 230.227 83.3096C205.774 111.881 184.349 80.7544 184.349 80.7544C184.349 80.7544 209.966 91.6719 211.363 80.2899Z" fill="url(#paint5_linear)"/>
<path d="M108.792 133.042C116.774 133.042 123.245 126.588 123.245 118.626C123.245 110.665 116.774 104.211 108.792 104.211C100.81 104.211 94.339 110.665 94.339 118.626C94.339 126.588 100.81 133.042 108.792 133.042Z" fill="url(#paint6_radial)"/>
<path d="M115.939 147.137C115.566 143.184 112.229 140.087 108.168 140.087C104.106 140.087 100.769 143.181 100.396 147.137H115.939Z" fill="#FFCF61"/>
<path d="M119.486 151.072H96.4257C95.2729 151.072 94.339 150.141 94.339 148.991V148.401C94.339 147.251 95.2729 146.32 96.4257 146.32H119.486C120.639 146.32 121.573 147.251 121.573 148.401V148.991C121.573 150.141 120.639 151.072 119.486 151.072Z" fill="#F7C052"/>
<path d="M108.985 104.339C110.759 104.339 112.197 102.904 112.197 101.135C112.197 99.3662 110.759 97.932 108.985 97.932C107.211 97.932 105.774 99.3662 105.774 101.135C105.774 102.904 107.211 104.339 108.985 104.339Z" fill="#FFF082"/>
<path d="M187.798 80.0576H169.3V80.3131C168.392 80.3131 167.558 80.629 166.899 81.154C166.531 81.3816 166.235 81.6557 166.121 81.9879C166.088 82.0343 166.056 82.0808 166.025 82.1296L165.816 81.8926L127.947 115.23H89.7326L80.9971 98.3014C80.713 96.4593 79.1154 95.0494 77.1894 95.0494C76.9519 95.0494 76.719 95.0726 76.4908 95.1144H59.5252V95.277C53.0883 96.1388 47.9951 101.526 47.7366 108.215C47.4664 115.242 52.6225 121.244 59.4623 122.19C60.2657 122.996 61.3766 123.495 62.6062 123.495C65.0538 123.495 67.038 121.516 67.038 119.075C67.038 116.633 65.0538 114.654 62.6062 114.654C61.5024 114.654 60.4916 115.059 59.7161 115.725C56.4232 114.963 54.0198 111.953 54.1549 108.462C54.2899 104.98 56.9006 102.169 60.2285 101.649H62.4572C62.534 101.66 62.6086 101.672 62.6831 101.688V101.649H74.1969L84.9584 122.501V122.919H85.0539C93.4098 140.661 108.531 139.641 108.531 139.641C118.147 139.562 124.914 133.049 128.643 128.162L128.883 127.892L128.887 127.955L129.029 127.725L139.514 115.981L139.477 115.988L141.186 114.41L140.953 114.543L166.016 92.478C166.119 92.4013 166.226 92.32 166.337 92.2317C171.99 87.7463 177.616 88.1086 177.616 88.1086L177.162 88.0041H187.791V80.0576H187.798Z" fill="url(#paint7_linear)"/>
<path d="M187.798 80.0576H169.3V80.3131C168.392 80.3131 167.558 80.629 166.899 81.154C166.531 81.3816 166.235 81.6557 166.121 81.9879C166.088 82.0343 166.056 82.0808 166.025 82.1296L165.816 81.8926L127.947 115.23H89.7326L80.9971 98.3014C80.713 96.4593 79.1154 95.0494 77.1894 95.0494C76.9519 95.0494 76.719 95.0726 76.4908 95.1144H59.5252V95.277C53.0883 96.1388 47.9951 101.526 47.7366 108.215C47.4664 115.242 52.6225 121.244 59.4623 122.19C60.2657 122.996 61.3766 123.495 62.6062 123.495C65.0538 123.495 67.038 121.516 67.038 119.075C67.038 116.633 65.0538 114.654 62.6062 114.654C61.5024 114.654 60.4916 115.059 59.7161 115.725C56.4232 114.963 54.0198 111.953 54.1549 108.462C54.2899 104.98 56.9006 102.169 60.2285 101.649H62.4572C62.534 101.66 62.6086 101.672 62.6831 101.688V101.649H74.1969L84.9584 122.501V122.919H85.0539C93.4098 140.661 108.531 139.641 108.531 139.641C118.147 139.562 124.914 133.049 128.643 128.162L128.883 127.892L128.887 127.955L129.029 127.725L139.514 115.981L139.477 115.988L141.186 114.41L140.953 114.543L166.016 92.478C166.119 92.4013 166.226 92.32 166.337 92.2317C171.99 87.7463 177.616 88.1086 177.616 88.1086L177.162 88.0041H187.791V80.0576H187.798Z" fill="url(#paint8_linear)"/>
<path d="M105.173 111.016C107.107 110.316 108.371 108.912 107.996 107.881C107.62 106.85 105.748 106.582 103.813 107.283C101.879 107.983 100.615 109.387 100.99 110.418C101.366 111.449 103.238 111.717 105.173 111.016Z" fill="white"/>
<path d="M93.6963 128.684C93.6963 128.684 95.238 133.939 102.304 134.963C102.304 134.963 107.7 134.067 93.6963 128.684Z" fill="white"/>
<path d="M207.087 20.79C208.726 19.4711 209.554 17.7845 208.938 17.0227C208.322 16.261 206.494 16.7126 204.856 18.0315C203.217 19.3503 202.388 21.037 203.005 21.7987C203.621 22.5605 205.449 22.1088 207.087 20.79Z" fill="white"/>
<path opacity="0.68" d="M212.688 37.433C213.846 37.433 214.784 36.445 214.784 35.2263C214.784 34.0075 213.846 33.0195 212.688 33.0195C211.531 33.0195 210.592 34.0075 210.592 35.2263C210.592 36.445 211.531 37.433 212.688 37.433Z" fill="#E24444"/>
<path opacity="0.68" d="M235.86 37.0846C237.018 37.0846 237.956 36.0966 237.956 34.8778C237.956 33.6591 237.018 32.6711 235.86 32.6711C234.703 32.6711 233.764 33.6591 233.764 34.8778C233.764 36.0966 234.703 37.0846 235.86 37.0846Z" fill="#E24444"/>
<path d="M211.851 16.458C212.534 16.1216 212.96 15.5915 212.803 15.2741C212.645 14.9567 211.964 14.9721 211.282 15.3085C210.599 15.645 210.173 16.175 210.331 16.4925C210.488 16.8099 211.169 16.7945 211.851 16.458Z" fill="white"/>
<path opacity="0.68" d="M217.928 45.2146C217.928 45.2146 224.682 48.002 229.573 43.124C229.573 43.124 226.312 57.9904 217.928 45.2146Z" fill="#E24444"/>
<path d="M112.73 153.388C112.725 153.307 112.723 153.226 112.723 153.144C112.723 150.176 115.136 147.769 118.112 147.769C119.013 147.769 119.861 147.99 120.608 148.38C121.88 146.471 124.055 145.212 126.526 145.212C130.445 145.212 133.624 148.382 133.624 152.292C133.624 152.313 133.624 152.334 133.624 152.354C133.962 152.271 134.314 152.224 134.677 152.224C137.073 152.224 139.015 154.162 139.015 156.552C139.015 158.942 137.073 160.879 134.677 160.879C134.565 160.879 134.456 160.875 134.348 160.865C134.339 163.809 131.945 166.189 128.992 166.189C126.854 166.189 125.008 164.94 124.15 163.13C123.387 163.453 122.546 163.632 121.666 163.632C119.474 163.632 117.544 162.529 116.395 160.852C115.662 161.442 114.73 161.797 113.713 161.797C111.354 161.797 109.442 159.89 109.442 157.537C109.437 155.518 110.844 153.83 112.73 153.388Z" fill="url(#paint9_linear)"/>
<path d="M203.955 153.692C225.435 153.692 242.847 151.144 242.847 148.001C242.847 144.858 225.435 142.31 203.955 142.31C182.476 142.31 165.064 144.858 165.064 148.001C165.064 151.144 182.476 153.692 203.955 153.692Z" fill="#EFEFEF"/>
<path d="M196.154 56.8173L198.312 61.182L203.14 61.8812L199.647 65.2772L200.471 70.0739L196.154 67.8091L191.836 70.0739L192.66 65.2772L189.167 61.8812L193.995 61.182L196.154 56.8173Z" fill="#FFF082"/>
<path d="M204.479 65.3237L205.252 66.8869L206.983 67.1378L205.73 68.355L206.026 70.0739L204.479 69.2632L202.931 70.0739L203.226 68.355L201.976 67.1378L203.706 66.8869L204.479 65.3237Z" fill="#FFF082"/>
<path d="M227.39 86.6452L225.851 89.7556L222.411 90.2527L224.901 92.6731L224.314 96.09L227.39 94.478L230.467 96.09L229.878 92.6731L232.367 90.2527L228.927 89.7556L227.39 86.6452Z" fill="#FFF082"/>
<path d="M221.459 92.7056L220.907 93.8206L219.675 93.9994L220.567 94.8659L220.355 96.09L221.459 95.5116L222.56 96.09L222.351 94.8659L223.243 93.9994L222.008 93.8206L221.459 92.7056Z" fill="#FFF082"/>
<path d="M256.822 47.9115L255.635 50.3133L252.977 50.6989L254.899 52.5688L254.447 55.2076L256.822 53.9625L259.2 55.2076L258.746 52.5688L260.667 50.6989L258.01 50.3133L256.822 47.9115Z" fill="#FFF082"/>
</g>
<defs>
<linearGradient id="paint0_linear" x1="193.37" y1="88.591" x2="239.047" y2="88.591" gradientUnits="userSpaceOnUse">
<stop stop-color="#402556"/>
<stop offset="0.1018" stop-color="#472659"/>
<stop offset="0.248" stop-color="#5A2A61"/>
<stop offset="0.4203" stop-color="#792F6F"/>
<stop offset="0.5153" stop-color="#8D3378"/>
<stop offset="0.7286" stop-color="#8F3476"/>
<stop offset="0.8101" stop-color="#963970"/>
<stop offset="0.869" stop-color="#A24166"/>
<stop offset="0.9171" stop-color="#B34D57"/>
<stop offset="0.9585" stop-color="#C95C44"/>
<stop offset="0.9947" stop-color="#E46E2D"/>
<stop offset="1" stop-color="#E97129"/>
</linearGradient>
<linearGradient id="paint1_linear" x1="216.065" y1="70.5388" x2="282.204" y2="70.5388" gradientUnits="userSpaceOnUse">
<stop stop-color="#402556"/>
<stop offset="0.1018" stop-color="#472659"/>
<stop offset="0.248" stop-color="#5A2A61"/>
<stop offset="0.4203" stop-color="#792F6F"/>
<stop offset="0.5153" stop-color="#8D3378"/>
<stop offset="0.7286" stop-color="#8F3476"/>
<stop offset="0.8101" stop-color="#963970"/>
<stop offset="0.869" stop-color="#A24166"/>
<stop offset="0.9171" stop-color="#B34D57"/>
<stop offset="0.9585" stop-color="#C95C44"/>
<stop offset="0.9947" stop-color="#E46E2D"/>
<stop offset="1" stop-color="#E97129"/>
</linearGradient>
<linearGradient id="paint2_linear" x1="51.4163" y1="142.465" x2="136.652" y2="142.465" gradientUnits="userSpaceOnUse">
<stop stop-color="#402556"/>
<stop offset="0.1018" stop-color="#472659"/>
<stop offset="0.248" stop-color="#5A2A61"/>
<stop offset="0.4203" stop-color="#792F6F"/>
<stop offset="0.5153" stop-color="#8D3378"/>
<stop offset="0.7286" stop-color="#8F3476"/>
<stop offset="0.8101" stop-color="#963970"/>
<stop offset="0.869" stop-color="#A24166"/>
<stop offset="0.9171" stop-color="#B34D57"/>
<stop offset="0.9585" stop-color="#C95C44"/>
<stop offset="0.9947" stop-color="#E46E2D"/>
<stop offset="1" stop-color="#E97129"/>
</linearGradient>
<linearGradient id="paint3_linear" x1="168.968" y1="22.7005" x2="204.627" y2="51.1096" gradientUnits="userSpaceOnUse">
<stop offset="6.92613e-08" stop-color="#E24444"/>
<stop offset="0.2567" stop-color="#E64B4B"/>
<stop offset="0.6255" stop-color="#F05E5E"/>
<stop offset="1" stop-color="#FF7878"/>
</linearGradient>
<linearGradient id="paint4_linear" x1="259.894" y1="27.7302" x2="250.684" y2="52.2472" gradientUnits="userSpaceOnUse">
<stop offset="6.92613e-08" stop-color="#E24444"/>
<stop offset="0.2567" stop-color="#E64B4B"/>
<stop offset="0.6255" stop-color="#F05E5E"/>
<stop offset="1" stop-color="#FF7878"/>
</linearGradient>
<linearGradient id="paint5_linear" x1="214.297" y1="114.298" x2="220.645" y2="26.4717" gradientUnits="userSpaceOnUse">
<stop offset="6.92613e-08" stop-color="#E24444"/>
<stop offset="0.2567" stop-color="#E64B4B"/>
<stop offset="0.6255" stop-color="#F05E5E"/>
<stop offset="1" stop-color="#FF7878"/>
</linearGradient>
<radialGradient id="paint6_radial" cx="0" cy="0" r="1" gradientUnits="userSpaceOnUse" gradientTransform="translate(108.791 118.626) scale(14.4522 14.4151)">
<stop stop-color="#F7C052"/>
<stop offset="0.4809" stop-color="#F7C052"/>
<stop offset="1" stop-color="#FFF082"/>
</radialGradient>
<linearGradient id="paint7_linear" x1="204.148" y1="110.803" x2="29.5897" y2="107.844" gradientUnits="userSpaceOnUse">
<stop stop-color="white"/>
<stop offset="0.1063" stop-color="#FFF5AC"/>
<stop offset="0.1659" stop-color="#FFF082"/>
<stop offset="0.4654" stop-color="#FFEE80"/>
<stop offset="0.7169" stop-color="#FFCF61"/>
<stop offset="1" stop-color="#FFF082"/>
</linearGradient>
<linearGradient id="paint8_linear" x1="119.455" y1="60.8689" x2="115.931" y2="138.994" gradientUnits="userSpaceOnUse">
<stop stop-color="white" stop-opacity="0"/>
<stop offset="0.1399" stop-color="#FEF6E5" stop-opacity="0.1399"/>
<stop offset="0.7348" stop-color="#F9CF7C" stop-opacity="0.7348"/>
<stop offset="1" stop-color="#F7C052"/>
</linearGradient>
<linearGradient id="paint9_linear" x1="139.014" y1="155.7" x2="109.438" y2="155.7" gradientUnits="userSpaceOnUse">
<stop stop-color="#402556"/>
<stop offset="0.1018" stop-color="#472659"/>
<stop offset="0.248" stop-color="#5A2A61"/>
<stop offset="0.4203" stop-color="#792F6F"/>
<stop offset="0.5153" stop-color="#8D3378"/>
<stop offset="0.7286" stop-color="#8F3476"/>
<stop offset="0.8101" stop-color="#963970"/>
<stop offset="0.869" stop-color="#A24166"/>
<stop offset="0.9171" stop-color="#B34D57"/>
<stop offset="0.9585" stop-color="#C95C44"/>
<stop offset="0.9947" stop-color="#E46E2D"/>
<stop offset="1" stop-color="#E97129"/>
</linearGradient>
<clipPath id="clip0">
<rect width="319" height="191" fill="white"/>
</clipPath>
</defs>
</svg>
