<svg xmlns="http://www.w3.org/2000/svg" viewBox="0 0 1873.18 374.23"><defs><style>.cls-1{fill:#3b3c3c;}.cls-2{fill:#aeb439;}.cls-3{fill:#ccd93e;}.cls-4{fill:#e5eaa5;}.cls-5{fill:#b7bc3f;}.cls-6{fill:#d7e263;}.cls-7{fill:#eef2c0;}</style></defs><title>Asset 1</title><g id="Layer_2" data-name="Layer 2"><g id="Layer_1-2" data-name="Layer 1"><path class="cls-1" d="M518.8,366.13V10.49h52v303.2H768.13v52.44Z"/><path class="cls-1" d="M1106.61,257.91q0,26.7-12.16,48.39A111.32,111.32,0,0,1,1061.08,343q-21.21,15-50.29,23.12t-62.93,8.1a167.71,167.71,0,0,1-40.76-5.05,196.3,196.3,0,0,1-39.33-14.43,190.54,190.54,0,0,1-36-23.07,187.75,187.75,0,0,1-30.28-30.87L838.69,266a245.33,245.33,0,0,0,17.16,18.36,132.88,132.88,0,0,0,23.6,18.11A140.52,140.52,0,0,0,910,316.31q16.92,5.47,37.9,5.48a197.3,197.3,0,0,0,38.61-3.8,123.09,123.09,0,0,0,33.85-11.63,70.33,70.33,0,0,0,23.84-19.93q9-12.12,9.06-28.73,0-20.43-9.3-31.34a53.28,53.28,0,0,0-24.08-15.91A125.43,125.43,0,0,0,986,204.52q-19.08-1-38.14-1-64.36,0-97.73-22.88t-33.37-69.13a95.08,95.08,0,0,1,9.77-41.71,113.56,113.56,0,0,1,27.18-35.75A134.2,134.2,0,0,1,895.18,9.3Q919.26,0,947.86,0q40.51,0,75.8,12.39t67.22,43.86l-32.42,38.14a325.3,325.3,0,0,0-26.93-19.55A145.17,145.17,0,0,0,1006,61.74a127.39,127.39,0,0,0-26.94-7.16,209.31,209.31,0,0,0-31.22-2.14,84.28,84.28,0,0,0-28.6,4.77A78.89,78.89,0,0,0,895.9,70.08a61.26,61.26,0,0,0-15.74,18.83,46.58,46.58,0,0,0-5.72,22.17,37.09,37.09,0,0,0,3.34,15.49q3.33,7.4,11.92,13.11t23.12,9.06q14.53,3.34,37.42,3.34,46.72,0,77,7.15t47.9,20.74q17.64,13.58,24.56,33.37T1106.61,257.91Z"/><path class="cls-1" d="M1283.94,4.29h57.21l171.14,361.84h-58.16l-23.36-52H1322.56a249.72,249.72,0,0,0-43.15,3.34,170.65,170.65,0,0,0-32.18,8.58q-13.34,5.25-21.45,11.44t-11,11.92l-9.06,16.69H1149.5l154-318Zm123.47,257.43-77.7-150.17-78.66,170.2q9.53-8.1,31.46-14.07t59.11-6Z"/><path class="cls-1" d="M1831.7,95.35A147.64,147.64,0,0,0,1785,63.88a143.64,143.64,0,0,0-57.2-11.44,151.49,151.49,0,0,0-55.3,10,131.12,131.12,0,0,0-44.58,28.31,132.77,132.77,0,0,0-29.56,43.31q-10.72,25-10.72,55a123.82,123.82,0,0,0,11.44,53.06,130,130,0,0,0,31,42.12,147.06,147.06,0,0,0,44.81,27.6,143.86,143.86,0,0,0,53.39,10q34.8,0,63.88-14.89a146.52,146.52,0,0,0,49.11-40.41l31.94,43.38a196.78,196.78,0,0,1-64.6,47.2q-37.42,17.16-80.8,17.16-40.53,0-75.33-14.78a186.84,186.84,0,0,1-101.06-101.3,191.08,191.08,0,0,1-14.78-75.08q0-39.09,15.49-72.71a183,183,0,0,1,42-58.16A198,198,0,0,1,1728.25,0q40.51,0,75.57,15a193.72,193.72,0,0,1,61.25,41.23Z"/><rect class="cls-2" x="223.85" y="11.69" width="261.16" height="93.27"/><rect class="cls-3" x="111.93" y="142.27" width="373.09" height="93.27"/><rect class="cls-4" y="272.85" width="485.02" height="93.27"/><path class="cls-5" d="M223.85,105V11.69H485S306.76,41.4,223.85,105Z"/><path class="cls-6" d="M111.93,235.55V142.27H373.09S194.84,172,111.93,235.55Z"/><path class="cls-7" d="M0,366.13V272.85H261.16S82.91,302.56,0,366.13Z"/></g></g></svg>