<svg width="33" height="30" viewBox="0 0 33 30" fill="none" xmlns="http://www.w3.org/2000/svg">
<path d="M30.3318 2.72195C26.7718 -0.907317 20.9437 -0.907317 17.3981 2.72195L16.5081 3.62927L15.6181 2.72195C12.0581 -0.907317 6.23 -0.907317 2.67 2.72195C-0.890001 6.35122 -0.890001 12.2927 2.67 15.9073L3.56 16.8146L16.4937 30L29.4274 16.8146L30.3174 15.9073C33.8918 12.2927 33.8918 6.35122 30.3318 2.72195ZM16.4937 22.7561C13.6084 22.7561 11.2686 20.3561 11.2686 17.4146C11.2686 16.2878 11.6131 15.1902 12.2877 14.2683C12.8332 13.522 13.5223 12.922 14.3836 12.5415V10.3463H13.6658V8.19512H15.1731V7.25854H17.8718V8.19512H19.3216V10.3463H18.6613V12.5415C20.4987 13.3902 21.7476 15.2927 21.7476 17.4146C21.7476 20.3561 19.3934 22.7561 16.4937 22.7561Z" fill="white"/>
</svg>
