<svg width="20" height="18" viewBox="0 0 20 18" fill="none" xmlns="http://www.w3.org/2000/svg">
<path fill-rule="evenodd" clip-rule="evenodd" d="M4.79456 0.884949H18.5179C19.323 0.884949 20 1.54367 20 2.36707V10.8938C20 11.6989 19.3413 12.3759 18.5179 12.3759H17.2004V14.2057C17.2004 14.4802 16.9809 14.6815 16.7247 14.6815C16.5966 14.6815 16.4868 14.6266 16.3953 14.5351L14.2545 12.3759H4.79456C3.98946 12.3759 3.31244 11.7172 3.31244 10.8938V2.36707C3.31244 1.56197 3.97116 0.884949 4.79456 0.884949ZM5.52647 6.85002C5.52647 7.60023 6.14859 8.22235 6.8988 8.22235C7.6673 8.22235 8.27113 7.60023 8.27113 6.85002C8.27113 6.09981 7.64901 5.47769 6.8988 5.47769C6.14859 5.47769 5.52647 6.09981 5.52647 6.85002ZM10.3388 6.85002C10.3388 7.60023 10.9609 8.22235 11.7111 8.22235C12.4613 8.22235 13.0834 7.60023 13.0834 6.85002C13.0834 6.09981 12.4613 5.47769 11.7111 5.47769C10.9609 5.47769 10.3388 6.09981 10.3388 6.85002ZM15.1328 6.85002C15.1328 7.60023 15.7549 8.22235 16.5051 8.22235C17.2553 8.22235 17.8775 7.60023 17.8775 6.85002C17.8775 6.09981 17.2553 5.47769 16.5051 5.47769C15.7549 5.47769 15.1328 6.09981 15.1328 6.85002ZM2.47075 8.02109V10.9304C2.47075 12.2113 3.51372 13.2542 4.79457 13.2542H10.9609V14.6449C10.9609 15.1755 10.5218 15.6147 9.99113 15.6147H3.76989L2.36096 17.0236C2.30607 17.0785 2.23288 17.1151 2.14139 17.1151C1.97671 17.1151 1.83033 16.9687 1.83033 16.804V15.5964H0.970333C0.4214 15.5964 -0.017746 15.1572 0.000551746 14.59V8.99087C0.000551746 8.46023 0.439698 8.02109 0.970333 8.02109H2.47075Z" fill="#8D3378"/>
</svg>
