<svg width="36" height="23" viewBox="0 0 36 23" fill="none" xmlns="http://www.w3.org/2000/svg">
<path d="M0.902344 23C1.18958 22.4833 1.46403 21.9621 1.76781 21.4564C2.53854 20.169 3.32129 18.889 4.09878 17.6075C4.85071 16.3776 5.60264 15.1508 6.3478 13.9165C6.58465 13.5267 6.80572 13.1274 7.07867 12.6549C7.37944 13.0772 7.6757 13.43 7.89827 13.8235C8.44492 14.7898 9.09308 14.8931 10.2247 14.7366C10.3181 14.7306 10.4118 14.7306 10.5052 14.7366C10.5639 16.811 11.5421 18.0452 13.746 18.1235C13.7535 18.8831 13.9971 19.526 14.4859 20.0428C14.7346 20.313 15.0369 20.5305 15.3742 20.682C15.7116 20.8336 16.0768 20.916 16.4477 20.9242C17.4365 20.9522 18.429 20.9641 19.417 20.9242C20.8209 20.8666 21.9924 19.8634 22.0961 18.4667C22.124 18.0903 22.3969 18.0681 22.6285 18.0637C23.3116 18.0475 23.9674 17.7971 24.482 17.3557C25.0264 16.9062 25.2888 16.2728 25.4099 15.5907C25.4588 15.3176 25.4851 15.0415 25.5242 14.7351C25.7753 14.758 26.028 14.7927 26.2821 14.8031C27.0679 14.8333 27.7003 14.6008 28.0868 13.8582C28.2687 13.5068 28.5529 13.2071 28.7635 12.869C28.8966 12.6579 28.9567 12.7117 29.0597 12.8837C30.12 14.6466 31.1827 16.4081 32.2479 18.1685C33.0638 19.5128 33.8886 20.8518 34.7022 22.1976C34.8571 22.4545 34.9767 22.7313 35.1128 22.9985L0.902344 23Z" fill="#D9D9D9"/>
<path d="M0 2.55194C0.142866 2.72911 0.300771 2.89742 0.426343 3.08344C1.96729 5.29803 3.50649 7.51533 5.04393 9.73534C5.25898 10.0446 5.48982 10.3421 5.72066 10.6588C4.41732 12.7937 3.11398 14.9288 1.81064 17.0642C1.27828 17.9522 0.757942 18.8528 0.225578 19.7438C0.159523 19.8285 0.0838408 19.9055 0 19.9734L0 2.55194Z" fill="#D9D9D9"/>
<path d="M10.527 12.4755C9.96379 12.604 9.63745 12.4608 9.3239 11.9876C7.92606 9.89332 6.46658 7.83596 5.0304 5.7668C4.00577 4.29631 2.98064 2.82606 1.95501 1.35607C1.64672 0.920532 1.33618 0.489425 0.988037 0H34.9947C34.7992 0.30709 34.624 0.602369 34.4277 0.885836C33.4081 2.34747 32.378 3.80171 31.3614 5.26482C29.9442 7.30372 28.5309 9.34607 27.1212 11.3919C26.9897 11.5816 26.8445 11.761 26.7122 11.9507C26.2956 12.5479 26.2971 12.5486 25.4903 12.5073C25.4903 12.2858 25.5008 12.0555 25.4903 11.8281C25.4452 11.0272 25.5023 10.2041 25.3181 9.43121C25.0008 8.10836 24.115 7.19299 22.8135 6.68954C22.2353 6.477 21.6207 6.37671 21.0036 6.39426C18.9117 6.40534 16.8191 6.38983 14.7272 6.40164C13.5542 6.40829 12.5256 6.82242 11.7143 7.64846C10.9563 8.41988 10.5352 9.36255 10.53 10.4536C10.527 11.1224 10.527 11.7971 10.527 12.4755Z" fill="#D9D9D9"/>
<path d="M18.0154 8.60514C19.0809 8.60514 20.1456 8.61179 21.2111 8.60514C22.4194 8.59629 23.2533 9.39502 23.2413 10.5983C23.2232 12.0747 23.2368 13.5511 23.2368 15.0275C23.2368 15.6298 22.9548 15.9081 22.3345 15.9133C21.8961 15.9133 21.4577 15.9133 21.0193 15.9133C20.3885 15.9133 19.9373 16.3717 19.926 16.9984C19.9175 17.4355 19.8962 17.8725 19.8621 18.3095C19.8388 18.6166 19.6035 18.7118 19.3358 18.7148C18.4086 18.7236 17.4815 18.7221 16.5536 18.7148C16.1777 18.7148 16.0273 18.5487 16.0145 18.1714C15.9942 17.685 16.0047 17.1941 15.9318 16.715C15.8589 16.2359 15.3506 15.8638 14.8272 15.8993C14.3234 15.9332 13.8114 15.8816 13.3053 15.8358C12.9294 15.8026 12.7857 15.5346 12.7842 15.1965C12.7797 13.585 12.7323 11.9713 12.8 10.3628C12.8444 9.30053 13.5181 8.65682 14.6693 8.61253C15.7837 8.57193 16.9003 8.60514 18.0154 8.60514ZM19.2673 11.8207L19.3245 11.8303C19.3245 12.0023 19.3245 12.1743 19.3245 12.3471C19.3282 12.911 19.835 13.4285 20.4231 13.4699C20.9261 13.5046 21.5509 12.9361 21.5765 12.4024C21.5938 12.0104 21.5938 11.6162 21.5765 11.2213C21.5562 10.757 21.1517 10.2801 20.7156 10.1694C20.2509 10.0513 19.6847 10.2617 19.4771 10.7304C19.3305 11.0633 19.332 11.4561 19.2673 11.8207ZM16.7176 11.8333L16.6469 11.7971C16.6115 11.5336 16.595 11.2663 16.5371 11.008C16.4748 10.732 16.3068 10.49 16.0679 10.3321C15.829 10.1743 15.5375 10.1126 15.2536 10.1598C14.7625 10.2336 14.3039 10.7806 14.3512 11.2516C14.3918 11.6421 14.3558 12.0407 14.3603 12.4327C14.3648 12.7922 14.749 13.2883 15.0964 13.3924C15.5528 13.5304 16.104 13.3887 16.3093 12.9959C16.4995 12.6372 16.5867 12.2238 16.7176 11.8333Z" fill="#D9D9D9"/>
<path d="M30.3027 10.6603L35.9332 2.5741L36.0001 2.60732V19.9166L35.9249 19.9542L30.3027 10.6603Z" fill="#D9D9D9"/>
</svg>
