<svg width="360" height="207" viewBox="0 0 360 207" fill="none" xmlns="http://www.w3.org/2000/svg">
<path fill-rule="evenodd" clip-rule="evenodd" d="M360 0H0V112.254C37.1718 169.083 104.106 207 180.5 207C256.214 207 322.635 169.755 360 113.768V0Z" fill="url(#paint0_linear)"/>
<mask id="mask0" mask-type="alpha" maskUnits="userSpaceOnUse" x="0" y="0" width="360" height="207">
<path fill-rule="evenodd" clip-rule="evenodd" d="M360 0H0V112.254C37.1718 169.083 104.106 207 180.5 207C256.214 207 322.635 169.755 360 113.768V0Z" fill="url(#paint1_linear)"/>
</mask>
<g mask="url(#mask0)">
<path d="M147 73C112.6 77.8 40.6667 26.3333 9 0H368C354.667 44.3333 317 125 273 93C218 53 190 67 147 73Z" fill="url(#paint2_linear)" fill-opacity="0.04"/>
<path d="M59.1169 59.122C30.8604 79.3202 -56.7346 67.0587 -97 58.4031L221.105 -108C229.84 -62.5366 233.855 26.4003 180.034 18.4404C112.759 8.49039 94.4375 33.8741 59.1169 59.122Z" fill="url(#paint3_linear)" fill-opacity="0.04"/>
<path d="M89.8715 104.886C55.1823 106.634 -11.9317 49.0235 -41.1525 20L316.449 51.6618C299.257 94.6465 254.623 171.677 213.617 135.921C162.359 91.2261 133.233 102.702 89.8715 104.886Z" fill="url(#paint4_linear)" fill-opacity="0.04"/>
<path d="M240.119 97.5791C209.84 114.596 124.09 92.9117 85 79.9427L419.268 -51C423.023 -4.85762 417.374 83.9904 364.734 70.2437C298.933 53.0602 277.968 76.3085 240.119 97.5791Z" fill="url(#paint5_linear)" fill-opacity="0.04"/>
</g>
<defs>
<linearGradient id="paint0_linear" x1="180.5" y1="-189" x2="180.5" y2="207" gradientUnits="userSpaceOnUse">
<stop stop-color="#5454AE"/>
<stop offset="1" stop-color="#2D2D86"/>
</linearGradient>
<linearGradient id="paint1_linear" x1="180.5" y1="-189" x2="180.5" y2="207" gradientUnits="userSpaceOnUse">
<stop stop-color="#5454AE"/>
<stop offset="1" stop-color="#2D2D86"/>
</linearGradient>
<linearGradient id="paint2_linear" x1="188.5" y1="0" x2="189" y2="100" gradientUnits="userSpaceOnUse">
<stop stop-color="white" stop-opacity="0"/>
<stop offset="1" stop-color="white"/>
</linearGradient>
<linearGradient id="paint3_linear" x1="62.0527" y1="-24.7984" x2="108.848" y2="63.5785" gradientUnits="userSpaceOnUse">
<stop stop-color="white" stop-opacity="0"/>
<stop offset="1" stop-color="white"/>
</linearGradient>
<linearGradient id="paint4_linear" x1="137.648" y1="35.8309" x2="129.327" y2="135.485" gradientUnits="userSpaceOnUse">
<stop stop-color="white" stop-opacity="0"/>
<stop offset="1" stop-color="white"/>
</linearGradient>
<linearGradient id="paint5_linear" x1="252.134" y1="14.4714" x2="289.074" y2="107.4" gradientUnits="userSpaceOnUse">
<stop stop-color="white" stop-opacity="0"/>
<stop offset="1" stop-color="white"/>
</linearGradient>
</defs>
</svg>
