<svg width="20" height="23" viewBox="0 0 20 23" fill="none" xmlns="http://www.w3.org/2000/svg">
<path fill-rule="evenodd" clip-rule="evenodd" d="M10 0C12.6711 0 15.1823 1.04017 17.0711 2.92891C18.9598 4.8177 20 7.32887 20 10C20 12.6711 18.9598 15.1823 17.0711 17.0711C15.1823 18.9598 12.6711 20 10 20C7.32891 20 4.8177 18.9598 2.92891 17.0711C1.04017 15.1823 0 12.6711 0 10C0 7.32887 1.04017 4.8177 2.92891 2.92891C4.8177 1.04017 7.32891 0 10 0ZM15.7183 4.28165C15.4637 4.02696 15.0507 4.02696 14.796 4.28165C14.5413 4.53635 14.5413 4.94926 14.796 5.20396C15.0507 5.45865 15.4637 5.45865 15.7183 5.20396C15.973 4.94926 15.973 4.53635 15.7183 4.28165ZM5.20396 4.28165C4.94926 4.02696 4.53635 4.02696 4.28165 4.28165C4.02696 4.53635 4.02696 4.94926 4.28165 5.20396C4.53635 5.45865 4.94926 5.45865 5.20396 5.20396C5.45865 4.94926 5.45865 4.53635 5.20396 4.28165ZM1.91304 10C1.91304 10.3602 2.20504 10.6522 2.56522 10.6522C2.92539 10.6522 3.21739 10.3602 3.21739 10C3.21739 9.63983 2.92539 9.34783 2.56522 9.34783C2.20504 9.34783 1.91304 9.63983 1.91304 10ZM4.28165 15.7183C4.53635 15.973 4.94926 15.973 5.20396 15.7183C5.45865 15.4637 5.45865 15.0507 5.20396 14.796C4.94926 14.5413 4.53635 14.5413 4.28165 14.796C4.02696 15.0507 4.02696 15.4637 4.28165 15.7183ZM9.34783 17.4348C9.34783 17.795 9.63983 18.087 10 18.087C10.3602 18.087 10.6522 17.795 10.6522 17.4348C10.6522 17.0746 10.3602 16.7826 10 16.7826C9.63983 16.7826 9.34783 17.0746 9.34783 17.4348ZM14.796 15.7183C15.0507 15.973 15.4637 15.973 15.7183 15.7183C15.973 15.4637 15.973 15.0507 15.7183 14.796C15.4637 14.5413 15.0507 14.5413 14.796 14.796C14.5413 15.0507 14.5413 15.4637 14.796 15.7183ZM16.2136 10.208L16.2143 10.1883C16.2162 10.1257 16.2174 10.063 16.2174 10C16.2174 9.93696 16.2162 9.87426 16.2142 9.81161L16.2132 9.78552L16.2124 9.7657C16.2105 9.71426 16.208 9.66304 16.2048 9.61196L16.2026 9.57735C16.1565 8.89344 15.9993 8.23961 15.749 7.63357L15.7412 7.61465C15.7171 7.55678 15.6924 7.49926 15.6666 7.4423C15.6613 7.43041 15.6557 7.41862 15.6501 7.40683L15.6392 7.38361C15.625 7.35304 15.6107 7.32252 15.596 7.29222C15.5786 7.25613 15.5606 7.2203 15.5424 7.18457L15.5292 7.1587C15.4829 7.06856 15.4351 6.97917 15.3843 6.89122C14.8394 5.94735 14.0525 5.16039 13.1087 4.61548L13.1044 4.61461C12.6839 4.37126 12.2322 4.17643 11.7572 4.03622L13.169 1.53109H6.83091L8.2427 4.03626C7.76722 4.17665 7.315 4.37174 6.89409 4.61548L6.89126 4.61552C5.94743 5.16043 5.16052 5.94739 4.61557 6.89126C4.56487 6.97909 4.51713 7.06839 4.47091 7.15839L4.45726 7.185C4.43922 7.22052 4.42135 7.25613 4.404 7.292C4.389 7.32291 4.37443 7.35413 4.35991 7.38535L4.34905 7.40846C4.34375 7.41965 4.33845 7.43085 4.33335 7.44213C4.30744 7.4993 4.28265 7.55704 4.25843 7.61513L4.25113 7.63296C4.00061 8.23917 3.84335 8.89326 3.79722 9.57744L3.79504 9.61196C3.79187 9.66304 3.78935 9.7143 3.78743 9.76574L3.78676 9.78295L3.7857 9.81165C3.78383 9.87426 3.78261 9.93696 3.78261 10C3.78261 10.063 3.78383 10.1257 3.78574 10.1883L3.7868 10.217L3.78748 10.2342C3.78939 10.2857 3.79191 10.3369 3.79509 10.388L3.7973 10.4226C3.84343 11.1065 4.00061 11.7604 4.251 12.3664L4.2587 12.3852C4.28283 12.4431 4.30752 12.5007 4.33335 12.5576C4.33869 12.5695 4.34426 12.5812 4.34983 12.593L4.34985 12.593L4.36078 12.6163C4.375 12.6469 4.38926 12.6774 4.40396 12.7077C4.42139 12.7438 4.43935 12.7796 4.45752 12.8153L4.47078 12.8412C4.51704 12.9313 4.56483 13.0207 4.61561 13.1087C5.16052 14.0526 5.94748 14.8395 6.8913 15.3844L6.89557 15.3853C7.80965 15.9143 8.87009 16.2174 10 16.2174C11.1299 16.2174 12.1903 15.9143 13.1045 15.3853L13.1087 15.3845C14.0526 14.8396 14.8395 14.0526 15.3844 13.1087C15.4352 13.0208 15.483 12.9314 15.5293 12.8413L15.5425 12.8154C15.5607 12.7797 15.5787 12.7438 15.5961 12.7077C15.6108 12.6775 15.625 12.6469 15.6393 12.6163L15.6502 12.5931C15.6558 12.5813 15.6613 12.5695 15.6667 12.5577C15.6925 12.5007 15.7172 12.4431 15.7413 12.3853L15.749 12.3665C15.9994 11.7604 16.1566 11.1065 16.2027 10.4226L16.205 10.388C16.2081 10.3369 16.2107 10.2857 16.2126 10.2343L16.2136 10.208ZM16.7826 10C16.7826 10.3602 17.0746 10.6522 17.4348 10.6522C17.795 10.6522 18.087 10.3602 18.087 10C18.087 9.63983 17.795 9.34783 17.4348 9.34783C17.0746 9.34783 16.7826 9.63983 16.7826 10ZM9.06327 2.83554L10 4.49771L10.9367 2.83554H9.06327ZM5.13055 9.34776C5.19399 8.87529 5.32599 8.41368 5.5222 7.97868C5.85642 7.2412 6.36786 6.60055 7.00155 6.11085L8.87038 9.34776H5.13055ZM8.87036 9.34778H8.87137V9.34879L8.87036 9.34778ZM5.13061 10.6522C5.19405 11.1247 5.32605 11.5863 5.52226 12.0213C5.85644 12.7588 6.36787 13.3994 7.00157 13.8891L8.87044 10.6522H5.13061ZM8.13017 14.543L10 11.3043L11.8698 14.543C11.2931 14.7813 10.6617 14.913 10 14.913C9.33826 14.913 8.70686 14.7813 8.13017 14.543ZM11.1295 10.6522L12.9984 13.8891C13.6321 13.3994 14.1435 12.7588 14.4778 12.0213C14.674 11.5863 14.806 11.1247 14.8694 10.6522H11.1295ZM12.9984 6.11091C13.6321 6.60061 14.1436 7.24121 14.4778 7.97874C14.674 8.41369 14.806 8.87534 14.8694 9.34782H11.1296L12.9984 6.11091ZM16.163 19.48C14.3453 20.667 12.2218 21.3043 9.99999 21.3043C7.7782 21.3043 5.65468 20.667 3.83694 19.48L2.41086 22.2609H17.5891L16.163 19.48ZM10 7.15447L11.0956 5.21042C11.3625 5.27151 11.6213 5.35429 11.8698 5.45699L10 8.69564L8.13017 5.45699C8.37873 5.35429 8.63752 5.27151 8.90443 5.21042L10 7.15447Z" fill="#E2DBDB"/>
</svg>
