<svg width="31" height="29" viewBox="0 0 31 29" fill="none" xmlns="http://www.w3.org/2000/svg">
<path d="M30.0876 12.0312C28.5275 7.18995 24.866 6.19934 22.112 6.19934C20.3768 6.19934 18.9599 6.56682 18.4187 6.74258L18.1799 6.80649L17.9729 6.66269C17.6386 6.45498 17.2566 6.2952 16.8904 6.18336C17.6705 2.87598 21.3001 1.75754 21.3001 1.75754L19.6286 0C19.6286 0 18.6097 0.0958661 17.1133 1.29419C15.6328 2.52447 15.2507 5.59219 15.2507 5.59219C15.2507 5.59219 15.2826 5.7999 15.394 6.10347C14.8527 6.16738 14.3115 6.37509 13.8339 6.71062L13.6269 6.85442L13.3882 6.75856C13.3563 6.75856 11.6211 6.1514 9.45607 6.1514C6.67017 6.1514 3.04055 7.17398 1.48045 11.9833C0.159142 16.0096 0.971031 20.6751 3.58181 24.2861C5.61949 27.1141 8.34171 28.7119 11.048 28.7119C11.8281 28.7119 12.6081 28.5681 13.3563 28.2965L13.5951 28.2006L13.8021 28.3444C15.0279 29.1912 16.7153 29.2232 17.9729 28.4083L18.1799 28.2645L18.4187 28.3284C19.1032 28.5361 19.8037 28.6639 20.52 28.6639C21.8732 28.6639 23.2423 28.2485 24.4999 27.4976C25.7894 26.7466 26.9515 25.6282 27.9703 24.2222C30.5652 20.6432 31.3771 15.9777 30.0876 12.0312ZM21.3319 10.769C22.3189 10.769 23.099 11.9992 23.099 13.5331C23.099 15.0669 22.3189 16.2972 21.3319 16.2972C20.3449 16.2972 19.5649 15.0669 19.5649 13.5331C19.5649 11.9992 20.3449 10.769 21.3319 10.769ZM10.459 10.769C11.446 10.769 12.226 11.9992 12.226 13.5331C12.226 15.0669 11.446 16.2972 10.459 16.2972C9.47199 16.2972 8.69194 15.0669 8.69194 13.5331C8.69194 11.9992 9.51974 10.769 10.459 10.769ZM23.0194 22.4486L21.8573 21.2184L18.0366 23.7428L15.7601 21.8734L13.5155 23.7428L9.6471 21.2184L8.45314 22.4486L4.61657 16.5209L8.45314 18.9815L9.6471 17.7512L13.4837 20.2757L15.7283 18.4063L17.9729 20.2757L21.8732 17.7512L23.0671 18.9815L26.9037 16.5209L23.0194 22.4486Z" fill="#D9D9D9"/>
</svg>
