<svg width="30" height="29" viewBox="0 0 30 29" fill="none" xmlns="http://www.w3.org/2000/svg">
<path d="M29.3937 12.0312C27.8249 7.18995 24.1431 6.19934 21.3737 6.19934C19.6289 6.19934 18.2042 6.56682 17.6599 6.74258L17.4198 6.80649L17.2117 6.66269C16.8755 6.45498 16.4914 6.2952 16.1232 6.18336C16.9076 2.87598 20.5573 1.75754 20.5573 1.75754L18.8765 0C18.8765 0 17.852 0.0958661 16.3473 1.29419C14.8586 2.52447 14.4744 5.59219 14.4744 5.59219C14.4744 5.59219 14.5064 5.7999 14.6184 6.10347C14.0742 6.16738 13.5299 6.37509 13.0497 6.71062L12.8416 6.85442L12.6015 6.75856C12.5694 6.75856 10.8246 6.1514 8.64752 6.1514C5.84615 6.1514 2.19636 7.17398 0.627595 11.9833C-0.701055 16.0096 0.115345 20.6751 2.74063 24.2861C4.78963 27.1141 7.52697 28.7119 10.2483 28.7119C11.0327 28.7119 11.8171 28.5681 12.5694 28.2965L12.8096 28.2006L13.0177 28.3444C14.2503 29.1912 15.9471 29.2232 17.2117 28.4083L17.4198 28.2645L17.6599 28.3284C18.3483 28.5361 19.0526 28.6639 19.773 28.6639C21.1336 28.6639 22.5103 28.2485 23.7749 27.4976C25.0716 26.7466 26.2401 25.6282 27.2646 24.2222C29.8739 20.6432 30.6903 15.9777 29.3937 12.0312ZM20.5894 10.769C21.5818 10.769 22.3662 11.9992 22.3662 13.5331C22.3662 15.0669 21.5818 16.2972 20.5894 16.2972C19.5969 16.2972 18.8125 15.0669 18.8125 13.5331C18.8125 11.9992 19.5969 10.769 20.5894 10.769ZM9.65601 10.769C10.6485 10.769 11.4329 11.9992 11.4329 13.5331C11.4329 15.0669 10.6485 16.2972 9.65601 16.2972C8.66353 16.2972 7.87914 15.0669 7.87914 13.5331C7.87914 11.9992 8.71155 10.769 9.65601 10.769ZM22.2862 22.4486L21.1176 21.2184L17.2757 23.7428L14.9866 21.8734L12.7295 23.7428L8.83961 21.2184L7.63903 22.4486L3.78114 16.5209L7.63903 18.9815L8.83961 17.7512L12.6975 20.2757L14.9546 18.4063L17.2117 20.2757L21.1336 17.7512L22.3342 18.9815L26.1921 16.5209L22.2862 22.4486Z" fill="white"/>
</svg>
