<svg width="33" height="30" viewBox="0 0 33 30" fill="none" xmlns="http://www.w3.org/2000/svg">
<path d="M30.2581 2.72195C26.7178 -0.907317 20.9219 -0.907317 17.3958 2.72195L16.5107 3.62927L15.6257 2.72195C12.0853 -0.907317 6.28946 -0.907317 2.74912 2.72195C-0.791212 6.35122 -0.791212 12.2927 2.74912 15.9073L3.63421 16.8146L16.4965 30L29.3587 16.8146L30.2438 15.9073C33.7984 12.2927 33.7984 6.35122 30.2581 2.72195ZM16.4965 22.7561C13.6271 22.7561 11.3002 20.3561 11.3002 17.4146C11.3002 16.2878 11.6428 15.1902 12.3137 14.2683C12.8562 13.522 13.5414 12.922 14.398 12.5415V10.3463H13.6842V8.19512H15.1831V7.25854H17.8669V8.19512H19.3088V10.3463H18.6521V12.5415C20.4793 13.3902 21.7213 15.2927 21.7213 17.4146C21.7213 20.3561 19.3801 22.7561 16.4965 22.7561Z" fill="#D9D9D9"/>
</svg>
