<svg width="30" height="20" viewBox="0 0 30 20" fill="none" xmlns="http://www.w3.org/2000/svg">
<path fill-rule="evenodd" clip-rule="evenodd" d="M27.0763 4.57922C25.0888 3.64831 22.7998 4.0867 21.2214 5.50923C21.3038 3.386 20.2866 1.3986 18.2988 0.467507C15.6215 -0.786505 12.6205 0.600682 11.0996 3.2167C11.0996 3.2167 10.6514 3.83298 10.368 5.18773C9.98207 7.03273 10.2124 8.94085 10.9278 10.6491L14.646 19.5477L23.9731 16.7598C25.7436 16.2154 27.3567 15.1712 28.527 13.6936C29.3864 12.6087 29.5729 11.8698 29.5729 11.8698C30.609 9.0267 29.7536 5.83323 27.0763 4.57922ZM10.7268 0.796974L11.0796 1.51185C10.496 2.01497 9.98336 2.63079 9.57499 3.3332C9.57499 3.3332 9.11641 3.96375 8.8265 5.34984C8.43159 7.23753 8.66726 9.1898 9.3992 10.9375L12.1191 17.4471L10.2726 16.4764C9.96569 16.3152 9.5988 16.3152 9.2919 16.4764L4.87865 18.7965C4.1057 19.2029 3.20215 18.5463 3.34989 17.6856L4.19263 12.7712C4.25139 12.4296 4.13794 12.0807 3.88981 11.8387L0.319298 8.35835C-0.30592 7.74864 0.0389294 6.68675 0.903297 6.56146L5.8377 5.84442C6.18092 5.79463 6.47761 5.57915 6.63106 5.26818L8.83768 0.796974C9.22375 0.0138201 10.3403 0.0138201 10.7268 0.796974Z" fill="#E2DBDB"/>
</svg>
