<svg width="24" height="22" viewBox="0 0 24 22" fill="none" xmlns="http://www.w3.org/2000/svg">
<path d="M22.7613 18.7002H13.6939L22.1977 8.02466C22.3133 7.87987 22.3997 7.71316 22.452 7.53412C22.5044 7.35507 22.5215 7.16723 22.5025 6.98139C22.4835 6.79554 22.4288 6.61537 22.3414 6.45124C22.254 6.2871 22.1357 6.14224 21.9933 6.02498L15.137 0.323361C14.9957 0.204889 14.8329 0.11612 14.6579 0.0621582C14.4828 0.00819605 14.2991 -0.00989605 14.1173 0.00892168C13.9354 0.0277394 13.7589 0.083096 13.5981 0.17181C13.4372 0.260524 13.2951 0.380845 13.1799 0.52586L3.09677 13.2074C2.86623 13.4955 2.75584 13.8647 2.78944 14.2353C2.82305 14.6059 2.99795 14.9481 3.27639 15.1881L7.47561 18.6812H1.23871C1.07604 18.6812 0.914963 18.7139 0.764676 18.7775C0.614389 18.8411 0.477835 18.9343 0.36281 19.0519C0.247785 19.1694 0.156542 19.3089 0.0942912 19.4625C0.0320402 19.616 0 19.7806 0 19.9468C0 20.113 0.0320402 20.2776 0.0942912 20.4311C0.156542 20.5847 0.247785 20.7242 0.36281 20.8417C0.477835 20.9592 0.614389 21.0525 0.764676 21.1161C0.914963 21.1797 1.07604 21.2124 1.23871 21.2124H22.7613C23.0898 21.2124 23.4049 21.0791 23.6372 20.8417C23.8695 20.6044 24 20.2825 24 19.9468C24 19.6111 23.8695 19.2892 23.6372 19.0519C23.4049 18.8145 23.0898 18.6812 22.7613 18.6812V18.7002Z" fill="#8D3378"/>
</svg>
