<svg width="17" height="18" viewBox="0 0 17 18" fill="none" xmlns="http://www.w3.org/2000/svg">
<path fill-rule="evenodd" clip-rule="evenodd" d="M16.6449 0.373303C16.1714 -0.124433 15.4037 -0.124435 14.9302 0.373302L8.5 7.13254L2.06985 0.373316C1.59634 -0.12442 0.82864 -0.12442 0.355136 0.373316C-0.118368 0.871052 -0.11837 1.67804 0.355134 2.17578L6.78529 8.935L0.355128 15.6942C-0.118376 16.192 -0.118376 16.999 0.355128 17.4967C0.828632 17.9944 1.59633 17.9944 2.06984 17.4967L8.5 10.7375L14.9302 17.4967C15.4037 17.9944 16.1714 17.9944 16.6449 17.4967C17.1184 16.999 17.1184 16.192 16.6449 15.6942L10.2147 8.935L16.6449 2.17577C17.1184 1.67803 17.1184 0.871039 16.6449 0.373303Z" fill="white"/>
</svg>
